<svg xmlns="http://www.w3.org/2000/svg" xmlns:xlink="http://www.w3.org/1999/xlink" width="500" zoomAndPan="magnify" viewBox="0 0 375 374.999991" height="500" preserveAspectRatio="xMidYMid meet" version="1.0"><defs><g/><clipPath id="7b2fde41e3"><path d="M 42 233 L 59 233 L 59 244.832031 L 42 244.832031 Z M 42 233 " clip-rule="nonzero"/></clipPath><clipPath id="8ba24e0bb3"><path d="M 16.636719 137 L 40 137 L 40 232 L 16.636719 232 Z M 16.636719 137 " clip-rule="nonzero"/></clipPath><clipPath id="a780d87ef6"><path d="M 28 130.082031 L 138.886719 130.082031 L 138.886719 240 L 28 240 Z M 28 130.082031 " clip-rule="nonzero"/></clipPath></defs><g clip-path="url(#7b2fde41e3)"><path fill="#f8f4eb" d="M 55.914062 244.734375 C 56.832031 244.734375 57.714844 244.207031 58.136719 243.316406 C 58.710938 242.089844 58.175781 240.636719 56.949219 240.0625 C 53.371094 238.386719 49.929688 236.355469 46.726562 234.019531 C 45.625 233.214844 44.097656 233.453125 43.292969 234.546875 C 42.496094 235.636719 42.738281 237.171875 43.828125 237.972656 C 47.28125 240.492188 51.003906 242.695312 54.875 244.503906 C 55.210938 244.65625 55.558594 244.734375 55.914062 244.734375 " fill-opacity="1" fill-rule="nonzero"/></g><g clip-path="url(#8ba24e0bb3)"><path fill="#f8f4eb" d="M 21.542969 184.515625 C 21.542969 168.621094 27.613281 153.550781 38.632812 142.089844 C 39.574219 141.113281 39.535156 139.5625 38.554688 138.625 C 37.578125 137.6875 36.023438 137.714844 35.085938 138.703125 C 23.183594 151.082031 16.636719 167.347656 16.636719 184.515625 C 16.636719 201.683594 23.183594 217.953125 35.085938 230.332031 C 35.574219 230.839844 36.214844 231.089844 36.859375 231.089844 C 37.472656 231.089844 38.085938 230.859375 38.554688 230.410156 C 39.535156 229.472656 39.574219 227.921875 38.632812 226.945312 C 27.613281 215.484375 21.542969 200.410156 21.542969 184.515625 " fill-opacity="1" fill-rule="nonzero"/></g><g clip-path="url(#a780d87ef6)"><path fill="#f8f4eb" d="M 107.050781 223.171875 L 108.414062 226.828125 C 107.90625 227.136719 107.386719 227.433594 106.867188 227.71875 L 104.347656 224.695312 C 102.496094 222.472656 99.542969 221.667969 96.820312 222.664062 C 94.097656 223.648438 92.339844 226.160156 92.351562 229.058594 L 92.371094 232.984375 C 91.785156 233.101562 91.199219 233.207031 90.617188 233.292969 L 89.300781 229.625 C 88.324219 226.894531 85.820312 225.132812 82.914062 225.132812 C 80.011719 225.132812 77.507812 226.894531 76.527344 229.625 L 75.214844 233.292969 C 74.628906 233.207031 74.035156 233.101562 73.449219 232.984375 L 73.46875 229.050781 C 73.488281 226.160156 71.734375 223.648438 69.011719 222.664062 C 66.289062 221.667969 63.324219 222.460938 61.472656 224.695312 L 58.960938 227.71875 C 58.445312 227.433594 57.925781 227.136719 57.417969 226.828125 L 58.769531 223.171875 C 59.785156 220.453125 59 217.492188 56.773438 215.636719 C 54.550781 213.769531 51.5 213.511719 49 214.964844 L 45.625 216.9375 C 45.21875 216.476562 44.828125 216.027344 44.453125 215.570312 L 46.996094 212.570312 C 48.875 210.359375 49.140625 207.316406 47.695312 204.808594 C 46.246094 202.296875 43.464844 201.015625 40.609375 201.53125 L 36.742188 202.242188 C 36.53125 201.695312 36.332031 201.140625 36.140625 200.585938 L 39.554688 198.640625 C 42.066406 197.203125 43.371094 194.4375 42.871094 191.582031 C 42.371094 188.730469 40.195312 186.574219 37.339844 186.085938 L 33.464844 185.417969 C 33.453125 185.121094 33.453125 184.8125 33.453125 184.515625 C 33.453125 184.21875 33.453125 183.914062 33.464844 183.617188 L 37.339844 182.945312 C 40.195312 182.457031 42.371094 180.304688 42.871094 177.449219 C 43.378906 174.597656 42.074219 171.832031 39.554688 170.394531 L 36.140625 168.449219 C 36.332031 167.894531 36.53125 167.339844 36.742188 166.792969 L 40.609375 167.492188 C 43.464844 168.019531 46.246094 166.726562 47.695312 164.226562 C 49.140625 161.71875 48.875 158.675781 47.003906 156.460938 L 44.460938 153.464844 C 44.835938 153.007812 45.21875 152.546875 45.625 152.097656 L 49 154.058594 C 51.5 155.523438 54.558594 155.265625 56.773438 153.398438 C 59 151.542969 59.785156 148.582031 58.78125 145.863281 L 57.417969 142.207031 C 57.925781 141.898438 58.445312 141.601562 58.960938 141.316406 L 61.484375 144.339844 C 63.335938 146.5625 66.289062 147.355469 69.011719 146.371094 C 71.734375 145.382812 73.488281 142.875 73.480469 139.976562 L 73.460938 136.050781 C 74.046875 135.933594 74.628906 135.828125 75.214844 135.742188 L 76.527344 139.410156 C 77.507812 142.136719 80.011719 143.902344 82.914062 143.902344 C 85.820312 143.902344 88.324219 142.136719 89.300781 139.410156 L 90.617188 135.742188 C 91.199219 135.828125 91.792969 135.933594 92.378906 136.050781 L 92.359375 139.984375 C 92.339844 142.875 94.097656 145.382812 96.820312 146.371094 C 99.542969 147.355469 102.496094 146.5625 104.355469 144.339844 L 106.867188 141.316406 C 107.386719 141.601562 107.90625 141.898438 108.414062 142.207031 L 107.0625 145.863281 C 106.042969 148.582031 106.832031 151.542969 109.054688 153.398438 C 111.28125 155.265625 114.328125 155.523438 116.832031 154.070312 L 120.207031 152.097656 C 120.609375 152.554688 121.003906 153.007812 121.378906 153.464844 L 118.835938 156.460938 C 116.957031 158.675781 116.6875 161.71875 118.136719 164.226562 C 119.585938 166.738281 122.363281 168.019531 125.222656 167.503906 L 129.085938 166.792969 C 129.296875 167.339844 129.5 167.894531 129.691406 168.449219 L 126.277344 170.394531 C 123.765625 171.832031 122.460938 174.597656 122.960938 177.449219 C 123.457031 180.304688 125.636719 182.457031 128.492188 182.945312 L 132.367188 183.617188 C 132.375 183.914062 132.375 184.21875 132.375 184.515625 C 132.375 184.8125 132.375 185.121094 132.367188 185.417969 L 128.492188 186.085938 C 125.636719 186.574219 123.457031 188.730469 122.960938 191.582031 C 122.453125 194.4375 123.753906 197.203125 126.277344 198.640625 L 129.691406 200.585938 C 129.5 201.140625 129.296875 201.695312 129.085938 202.242188 L 125.222656 201.53125 C 123.066406 201.148438 120.945312 201.769531 119.375 203.238281 C 118.691406 203.886719 118.195312 204.664062 117.820312 205.503906 L 115.011719 202.25 C 115.058594 202.058594 115.125 201.867188 115.125 201.675781 C 115.125 201.035156 114.875 200.402344 114.40625 199.933594 C 113.898438 199.425781 113.167969 199.234375 112.460938 199.292969 L 109.878906 196.304688 C 111.519531 192.578125 112.375 188.625 112.375 184.515625 C 112.375 168.296875 99.160156 155.101562 82.914062 155.101562 C 66.671875 155.101562 53.457031 168.296875 53.457031 184.515625 C 53.457031 200.738281 66.671875 213.929688 82.914062 213.929688 C 87.027344 213.929688 90.988281 213.078125 94.71875 211.441406 L 106.957031 221.972656 C 106.90625 222.367188 106.90625 222.769531 107.050781 223.171875 Z M 129.058594 234.066406 C 128.109375 233.109375 128.109375 231.550781 129.058594 230.601562 C 130.015625 229.644531 131.582031 229.644531 132.539062 230.59375 C 133.488281 231.550781 133.488281 233.109375 132.539062 234.066406 C 131.582031 235.015625 130.015625 235.015625 129.058594 234.066406 Z M 90.28125 207.621094 L 90.519531 207.824219 C 90.441406 207.851562 90.355469 207.859375 90.28125 207.890625 Z M 80.460938 199.167969 L 85.371094 203.398438 L 85.371094 208.90625 C 84.554688 208.980469 83.738281 209.027344 82.914062 209.027344 C 82.089844 209.027344 81.265625 208.980469 80.460938 208.90625 Z M 70.179688 191.871094 C 71.476562 194.09375 73.324219 195.941406 75.550781 197.234375 L 75.550781 207.898438 C 67.925781 205.496094 61.90625 199.484375 59.5 191.871094 Z M 75.550781 171.800781 C 73.324219 173.09375 71.476562 174.941406 70.179688 177.164062 L 59.5 177.164062 C 61.90625 169.550781 67.925781 163.539062 75.550781 161.136719 Z M 85.371094 170.03125 C 84.566406 169.894531 83.75 169.808594 82.914062 169.808594 C 82.082031 169.808594 81.265625 169.894531 80.460938 170.03125 L 80.460938 160.128906 C 81.265625 160.054688 82.089844 160.003906 82.914062 160.003906 C 83.738281 160.003906 84.566406 160.054688 85.371094 160.128906 Z M 95.648438 177.164062 C 94.355469 174.941406 92.503906 173.09375 90.28125 171.800781 L 90.28125 161.136719 C 97.902344 163.539062 103.925781 169.550781 106.332031 177.164062 Z M 106.054688 191.871094 L 106.3125 191.871094 C 106.292969 191.949219 106.273438 192.023438 106.253906 192.101562 Z M 97.585938 182.066406 L 107.339844 182.066406 C 107.414062 182.871094 107.464844 183.695312 107.464844 184.515625 C 107.464844 185.339844 107.414062 186.15625 107.328125 186.96875 L 101.816406 186.96875 Z M 58.367188 184.515625 C 58.367188 183.675781 58.414062 182.839844 58.492188 182.019531 C 58.570312 182.027344 58.625 182.066406 58.703125 182.066406 L 68.40625 182.066406 C 68.273438 182.871094 68.1875 183.683594 68.1875 184.515625 C 68.1875 185.351562 68.273438 186.164062 68.40625 186.96875 L 58.492188 186.96875 C 58.414062 186.164062 58.367188 185.339844 58.367188 184.515625 Z M 82.914062 194.320312 C 77.496094 194.320312 73.097656 189.925781 73.097656 184.515625 C 73.097656 179.109375 77.496094 174.710938 82.914062 174.710938 C 88.332031 174.710938 92.734375 179.109375 92.734375 184.515625 C 92.734375 189.925781 88.332031 194.320312 82.914062 194.320312 Z M 87.277344 198.5625 C 91.898438 197.136719 95.542969 193.488281 96.984375 188.875 L 128.503906 225.375 C 127.4375 225.726562 126.429688 226.292969 125.585938 227.136719 C 124.753906 227.96875 124.1875 228.972656 123.832031 230.035156 Z M 130.523438 239.785156 C 132.039062 239.785156 133.554688 239.34375 134.851562 238.472656 C 135.261719 238.203125 135.644531 237.886719 136.011719 237.535156 C 136.058594 237.484375 136.085938 237.429688 136.136719 237.378906 C 138.847656 234.527344 138.984375 230.015625 136.394531 227.019531 L 121.730469 210.035156 C 122.03125 209.566406 122.203125 209.019531 122.136719 208.433594 C 122.058594 207.851562 122.296875 207.230469 122.75 206.808594 C 123.046875 206.519531 123.5625 206.214844 124.339844 206.359375 L 130.171875 207.421875 C 131.292969 207.621094 132.40625 207.027344 132.863281 205.976562 C 133.679688 204.089844 134.390625 202.125 134.984375 200.144531 C 135.320312 199.050781 134.851562 197.875 133.851562 197.308594 L 128.714844 194.378906 C 127.648438 193.777344 127.746094 192.742188 127.792969 192.4375 C 127.851562 192.128906 128.117188 191.125 129.316406 190.914062 L 135.15625 189.917969 C 136.277344 189.726562 137.121094 188.777344 137.191406 187.640625 C 137.246094 186.605469 137.285156 185.5625 137.285156 184.515625 C 137.285156 183.472656 137.246094 182.429688 137.191406 181.394531 C 137.121094 180.257812 136.277344 179.308594 135.15625 179.117188 L 129.316406 178.121094 C 128.117188 177.910156 127.851562 176.90625 127.792969 176.597656 C 127.746094 176.292969 127.648438 175.257812 128.714844 174.65625 L 133.851562 171.726562 C 134.851562 171.160156 135.320312 169.992188 134.984375 168.890625 C 134.390625 166.898438 133.671875 164.9375 132.863281 163.058594 C 132.414062 162.007812 131.292969 161.414062 130.171875 161.613281 L 124.339844 162.675781 C 123.152344 162.90625 122.546875 162.046875 122.382812 161.777344 C 122.230469 161.507812 121.789062 160.5625 122.574219 159.632812 L 126.410156 155.113281 C 127.148438 154.242188 127.1875 152.976562 126.507812 152.066406 C 125.308594 150.46875 123.957031 148.859375 122.480469 147.300781 C 121.695312 146.464844 120.4375 146.285156 119.449219 146.859375 L 114.359375 149.828125 C 113.304688 150.449219 112.449219 149.847656 112.210938 149.644531 C 111.980469 149.453125 111.230469 148.714844 111.664062 147.566406 L 113.707031 142.042969 C 114.109375 140.96875 113.714844 139.773438 112.757812 139.140625 C 111.03125 138.011719 109.21875 136.96875 107.367188 136.03125 C 106.339844 135.511719 105.09375 135.769531 104.367188 136.652344 L 100.578125 141.210938 C 99.800781 142.148438 98.785156 141.878906 98.496094 141.765625 C 98.210938 141.660156 97.261719 141.21875 97.269531 140.003906 L 97.289062 134.078125 C 97.300781 132.9375 96.511719 131.941406 95.398438 131.683594 C 93.386719 131.214844 91.316406 130.851562 89.261719 130.609375 C 88.113281 130.457031 87.046875 131.148438 86.664062 132.21875 L 84.679688 137.753906 C 84.265625 138.910156 83.222656 139 82.914062 139 C 82.609375 139 81.5625 138.910156 81.152344 137.753906 L 79.164062 132.21875 C 78.78125 131.148438 77.71875 130.46875 76.578125 130.609375 C 74.523438 130.839844 72.453125 131.203125 70.429688 131.683594 C 69.316406 131.941406 68.53125 132.9375 68.542969 134.078125 L 68.570312 140.003906 C 68.570312 141.21875 67.621094 141.660156 67.332031 141.765625 C 67.046875 141.871094 66.039062 142.136719 65.253906 141.199219 L 61.464844 136.652344 C 60.734375 135.769531 59.5 135.511719 58.472656 136.03125 C 56.601562 136.96875 54.789062 138.019531 53.074219 139.140625 C 52.125 139.773438 51.722656 140.96875 52.125 142.042969 L 54.175781 147.566406 C 54.597656 148.714844 53.859375 149.453125 53.621094 149.644531 C 53.378906 149.847656 52.527344 150.449219 51.472656 149.828125 L 46.378906 146.859375 C 45.394531 146.285156 44.144531 146.464844 43.359375 147.289062 C 41.882812 148.859375 40.53125 150.460938 39.332031 152.058594 C 38.640625 152.976562 38.679688 154.242188 39.417969 155.113281 L 43.253906 159.632812 C 44.039062 160.5625 43.601562 161.507812 43.445312 161.765625 C 43.292969 162.035156 42.699219 162.898438 41.488281 162.675781 L 35.660156 161.613281 C 34.546875 161.421875 33.425781 162.007812 32.964844 163.058594 C 32.148438 164.945312 31.441406 166.910156 30.847656 168.890625 C 30.511719 169.984375 30.980469 171.160156 31.976562 171.726562 L 37.117188 174.65625 C 38.183594 175.257812 38.085938 176.292969 38.039062 176.597656 C 37.980469 176.90625 37.710938 177.910156 36.511719 178.121094 L 30.671875 179.117188 C 29.550781 179.308594 28.707031 180.257812 28.640625 181.394531 C 28.582031 182.429688 28.542969 183.472656 28.542969 184.515625 C 28.542969 185.5625 28.582031 186.605469 28.640625 187.640625 C 28.707031 188.777344 29.550781 189.726562 30.671875 189.917969 L 36.511719 190.914062 C 37.710938 191.125 37.980469 192.128906 38.039062 192.4375 C 38.085938 192.742188 38.183594 193.777344 37.117188 194.378906 L 31.976562 197.308594 C 30.980469 197.875 30.511719 199.042969 30.847656 200.144531 C 31.441406 202.136719 32.160156 204.097656 32.964844 205.976562 C 33.417969 207.019531 34.527344 207.613281 35.660156 207.421875 L 41.488281 206.359375 C 42.6875 206.136719 43.292969 206.988281 43.445312 207.257812 C 43.601562 207.527344 44.039062 208.472656 43.253906 209.402344 L 39.417969 213.921875 C 38.679688 214.792969 38.640625 216.058594 39.324219 216.96875 C 40.523438 218.566406 41.875 220.175781 43.351562 221.734375 C 44.136719 222.566406 45.394531 222.75 46.378906 222.175781 L 51.472656 219.207031 C 52.527344 218.585938 53.378906 219.1875 53.621094 219.390625 C 53.851562 219.582031 54.597656 220.316406 54.167969 221.46875 L 52.125 226.992188 C 51.722656 228.0625 52.113281 229.261719 53.074219 229.894531 C 54.789062 231.023438 56.601562 232.066406 58.464844 233.003906 C 59.488281 233.523438 60.726562 233.261719 61.464844 232.382812 L 65.253906 227.824219 C 66.027344 226.894531 67.046875 227.164062 67.332031 227.269531 C 67.621094 227.375 68.570312 227.816406 68.558594 229.03125 L 68.542969 234.957031 C 68.53125 236.097656 69.316406 237.09375 70.429688 237.351562 C 72.445312 237.820312 74.515625 238.183594 76.566406 238.425781 C 76.671875 238.433594 76.757812 238.445312 76.855469 238.445312 C 77.882812 238.445312 78.8125 237.800781 79.164062 236.816406 L 81.152344 231.28125 C 81.5625 230.121094 82.609375 230.035156 82.914062 230.035156 C 83.222656 230.035156 84.265625 230.121094 84.679688 231.28125 L 86.664062 236.816406 C 87.046875 237.886719 88.121094 238.566406 89.253906 238.425781 C 91.304688 238.195312 93.378906 237.832031 95.398438 237.351562 C 96.511719 237.09375 97.300781 236.097656 97.289062 234.957031 L 97.261719 229.03125 C 97.261719 227.816406 98.210938 227.375 98.496094 227.269531 C 98.785156 227.164062 99.792969 226.886719 100.578125 227.835938 L 104.367188 232.382812 C 105.09375 233.261719 106.332031 233.523438 107.359375 233.003906 C 109.226562 232.066406 111.039062 231.011719 112.757812 229.894531 C 113.4375 229.441406 113.820312 228.6875 113.839844 227.910156 L 125.480469 237.917969 C 126.929688 239.160156 128.730469 239.785156 130.523438 239.785156 " fill-opacity="1" fill-rule="nonzero"/></g><path fill="#f8f4eb" d="M 81.984375 152.449219 C 82.273438 152.574219 82.597656 152.652344 82.914062 152.652344 C 83.558594 152.652344 84.191406 152.382812 84.660156 151.945312 C 85.101562 151.472656 85.371094 150.84375 85.371094 150.199219 C 85.371094 149.558594 85.101562 148.925781 84.660156 148.457031 C 83.96875 147.777344 82.886719 147.578125 81.984375 147.941406 C 81.660156 148.066406 81.390625 148.238281 81.171875 148.457031 C 80.730469 148.925781 80.460938 149.558594 80.460938 150.199219 C 80.460938 150.84375 80.730469 151.472656 81.171875 151.945312 C 81.390625 152.164062 81.660156 152.335938 81.984375 152.449219 " fill-opacity="1" fill-rule="nonzero"/><path fill="#f8f4eb" d="M 53.160156 169.808594 C 53.800781 169.808594 54.433594 169.542969 54.875 169.101562 C 55.347656 168.632812 55.613281 168 55.613281 167.359375 C 55.613281 166.71875 55.347656 166.085938 54.875 165.617188 C 53.976562 164.707031 52.324219 164.707031 51.414062 165.617188 C 50.953125 166.085938 50.707031 166.71875 50.707031 167.359375 C 50.707031 168 50.953125 168.632812 51.414062 169.101562 C 51.886719 169.542969 52.5 169.808594 53.160156 169.808594 " fill-opacity="1" fill-rule="nonzero"/><path fill="#f8f4eb" d="M 51.414062 199.933594 C 50.953125 200.402344 50.707031 201.035156 50.707031 201.675781 C 50.707031 202.316406 50.953125 202.949219 51.414062 203.417969 C 51.855469 203.859375 52.5 204.125 53.140625 204.125 C 53.800781 204.125 54.433594 203.859375 54.875 203.417969 C 55.347656 202.949219 55.613281 202.316406 55.613281 201.675781 C 55.613281 201.035156 55.347656 200.402344 54.875 199.933594 C 53.976562 199.023438 52.324219 199.023438 51.414062 199.933594 " fill-opacity="1" fill-rule="nonzero"/><path fill="#f8f4eb" d="M 85.167969 217.90625 C 85.121094 217.753906 85.054688 217.609375 84.949219 217.484375 C 84.851562 217.339844 84.757812 217.214844 84.660156 217.089844 C 83.75 216.183594 82.101562 216.183594 81.171875 217.089844 C 80.730469 217.558594 80.460938 218.191406 80.460938 218.832031 C 80.460938 219.476562 80.730469 220.105469 81.171875 220.578125 C 81.640625 221.015625 82.273438 221.285156 82.914062 221.285156 C 83.558594 221.285156 84.191406 221.015625 84.660156 220.578125 C 84.757812 220.453125 84.851562 220.328125 84.949219 220.203125 C 85.054688 220.058594 85.121094 219.914062 85.167969 219.761719 C 85.246094 219.617188 85.292969 219.476562 85.320312 219.320312 C 85.339844 219.148438 85.371094 218.976562 85.371094 218.832031 C 85.371094 218.660156 85.339844 218.519531 85.320312 218.34375 C 85.292969 218.191406 85.246094 218.046875 85.167969 217.90625 " fill-opacity="1" fill-rule="nonzero"/><path fill="#f8f4eb" d="M 112.671875 169.808594 C 113.332031 169.808594 113.945312 169.542969 114.40625 169.101562 C 114.875 168.632812 115.144531 168 115.144531 167.359375 C 115.144531 166.71875 114.875 166.085938 114.40625 165.617188 C 113.503906 164.707031 111.855469 164.707031 110.945312 165.617188 C 110.484375 166.085938 110.234375 166.71875 110.234375 167.359375 C 110.234375 168 110.484375 168.632812 110.945312 169.101562 C 111.386719 169.542969 112.027344 169.808594 112.671875 169.808594 " fill-opacity="1" fill-rule="nonzero"/><g fill="#f8f4eb" fill-opacity="1"><g transform="translate(174.785588, 192.749987)"><g><path d="M 13.375 -13.722656 L 13.796875 -17.398438 C 12.722656 -17.875 11.523438 -18.097656 10.273438 -18.097656 C -1.824219 -18.097656 -1.851562 0.0507812 10.273438 0.0507812 C 11.523438 0.0507812 13.097656 -0.25 14.199219 -0.699219 L 13.722656 -4.398438 C 13.046875 -4.050781 11.824219 -3.601562 10.273438 -3.601562 C 3.199219 -3.601562 3.199219 -14.5 10.273438 -14.5 C 11.824219 -14.5 12.699219 -14.074219 13.375 -13.722656 Z M 13.375 -13.722656 "/></g></g></g><g fill="#f8f4eb" fill-opacity="1"><g transform="translate(189.833206, 192.749987)"><g><path d="M 6.375 0 L 9.925781 0 L 9.925781 -8.050781 L 16.171875 -17.875 L 11.796875 -17.875 L 8.148438 -11.722656 L 4.5 -17.875 L 0.148438 -17.875 L 6.375 -8.050781 Z M 6.375 0 "/></g></g></g><g fill="#f8f4eb" fill-opacity="1"><g transform="translate(206.05564, 192.749987)"><g><path d="M 13.375 -13.722656 L 13.796875 -17.398438 C 12.722656 -17.875 11.523438 -18.097656 10.273438 -18.097656 C -1.824219 -18.097656 -1.851562 0.0507812 10.273438 0.0507812 C 11.523438 0.0507812 13.097656 -0.25 14.199219 -0.699219 L 13.722656 -4.398438 C 13.046875 -4.050781 11.824219 -3.601562 10.273438 -3.601562 C 3.199219 -3.601562 3.199219 -14.5 10.273438 -14.5 C 11.824219 -14.5 12.699219 -14.074219 13.375 -13.722656 Z M 13.375 -13.722656 "/></g></g></g><g fill="#f8f4eb" fill-opacity="1"><g transform="translate(221.103258, 192.749987)"><g><path d="M 2 -17.875 L 2 0 L 11.25 0 L 11.25 -3.574219 L 5.574219 -3.574219 L 5.574219 -17.875 Z M 2 -17.875 "/></g></g></g><g fill="#f8f4eb" fill-opacity="1"><g transform="translate(233.426301, 192.749987)"><g><path d="M 10.597656 0.25 C 22.898438 0.25 22.898438 -18.171875 10.597656 -18.171875 C -1.699219 -18.171875 -1.699219 0.25 10.597656 0.25 Z M 10.597656 -3.449219 C 3.449219 -3.449219 3.449219 -14.5 10.597656 -14.5 C 17.75 -14.5 17.75 -3.449219 10.597656 -3.449219 Z M 10.597656 -3.449219 "/></g></g></g><g fill="#f8f4eb" fill-opacity="1"><g transform="translate(254.597949, 192.749987)"><g><path d="M 8.523438 0 L 8.523438 -14.296875 L 12.972656 -14.296875 L 12.972656 -17.847656 L 0.5 -17.847656 L 0.5 -14.296875 L 4.949219 -14.296875 L 4.949219 0 Z M 8.523438 0 "/></g></g></g><g fill="#f8f4eb" fill-opacity="1"><g transform="translate(268.270788, 192.749987)"><g><path d="M 10.898438 0 L 14.949219 0 L 10.800781 -7.375 C 16.046875 -8.898438 15.421875 -17.875 9.050781 -17.875 L 2 -17.875 L 2 0 L 5.574219 0 L 5.574219 -6.824219 L 7.300781 -6.824219 Z M 5.574219 -10.300781 L 5.574219 -14.296875 L 8.722656 -14.296875 C 11.148438 -14.296875 11.148438 -10.300781 8.722656 -10.300781 Z M 5.574219 -10.300781 "/></g></g></g><g fill="#f8f4eb" fill-opacity="1"><g transform="translate(283.593362, 192.749987)"><g><path d="M 10.597656 0.25 C 22.898438 0.25 22.898438 -18.171875 10.597656 -18.171875 C -1.699219 -18.171875 -1.699219 0.25 10.597656 0.25 Z M 10.597656 -3.449219 C 3.449219 -3.449219 3.449219 -14.5 10.597656 -14.5 C 17.75 -14.5 17.75 -3.449219 10.597656 -3.449219 Z M 10.597656 -3.449219 "/></g></g></g><g fill="#f8f4eb" fill-opacity="1"><g transform="translate(304.76501, 192.749987)"><g><path d="M 5.574219 -9.722656 L 14.625 0.375 L 15.574219 0.375 L 15.574219 -17.847656 L 11.972656 -17.847656 L 11.972656 -7.75 L 2.949219 -18.25 L 2 -18.25 L 2 0 L 5.574219 0 Z M 5.574219 -9.722656 "/></g></g></g></svg>