<svg xmlns="http://www.w3.org/2000/svg" xmlns:xlink="http://www.w3.org/1999/xlink" width="500" zoomAndPan="magnify" viewBox="0 0 375 374.999991" height="500" preserveAspectRatio="xMidYMid meet" version="1.0"><defs><g/><clipPath id="acf5c0e04a"><path d="M 154 210 L 170 210 L 170 221.433594 L 154 221.433594 Z M 154 210 " clip-rule="nonzero"/></clipPath><clipPath id="7d5292a99a"><path d="M 127.988281 114 L 151 114 L 151 208 L 127.988281 208 Z M 127.988281 114 " clip-rule="nonzero"/></clipPath></defs><g clip-path="url(#acf5c0e04a)"><path fill="#f8f4eb" d="M 167.265625 221.332031 C 168.1875 221.332031 169.070312 220.804688 169.492188 219.914062 C 170.066406 218.691406 169.527344 217.234375 168.300781 216.660156 C 164.726562 214.984375 161.28125 212.953125 158.078125 210.617188 C 156.976562 209.8125 155.453125 210.054688 154.648438 211.144531 C 153.851562 212.234375 154.089844 213.769531 155.183594 214.574219 C 158.636719 217.089844 162.355469 219.292969 166.230469 221.101562 C 166.566406 221.253906 166.910156 221.332031 167.265625 221.332031 " fill-opacity="1" fill-rule="nonzero"/></g><g clip-path="url(#7d5292a99a)"><path fill="#f8f4eb" d="M 132.898438 161.117188 C 132.898438 145.222656 138.96875 130.148438 149.984375 118.6875 C 150.925781 117.710938 150.886719 116.160156 149.910156 115.222656 C 148.929688 114.285156 147.378906 114.3125 146.4375 115.300781 C 134.539062 127.679688 127.988281 143.949219 127.988281 161.117188 C 127.988281 178.285156 134.539062 194.550781 146.4375 206.933594 C 146.925781 207.4375 147.570312 207.6875 148.210938 207.6875 C 148.824219 207.6875 149.441406 207.457031 149.910156 207.007812 C 150.886719 206.070312 150.925781 204.519531 149.984375 203.542969 C 138.96875 192.082031 132.898438 177.011719 132.898438 161.117188 " fill-opacity="1" fill-rule="nonzero"/></g><path fill="#f8f4eb" d="M 218.40625 199.769531 L 219.765625 203.425781 C 219.257812 203.734375 218.742188 204.03125 218.222656 204.316406 L 215.699219 201.292969 C 213.851562 199.070312 210.898438 198.265625 208.171875 199.261719 C 205.449219 200.25 203.695312 202.757812 203.703125 205.660156 L 203.722656 209.582031 C 203.140625 209.699219 202.554688 209.804688 201.96875 209.890625 L 200.65625 206.222656 C 199.675781 203.496094 197.175781 201.734375 194.269531 201.734375 C 191.363281 201.734375 188.859375 203.496094 187.882812 206.222656 L 186.570312 209.890625 C 185.984375 209.804688 185.390625 209.699219 184.804688 209.582031 L 184.824219 205.648438 C 184.84375 202.757812 183.089844 200.25 180.363281 199.261719 C 177.640625 198.265625 174.679688 199.0625 172.828125 201.292969 L 170.316406 204.316406 C 169.796875 204.03125 169.28125 203.734375 168.769531 203.425781 L 170.125 199.769531 C 171.140625 197.050781 170.355469 194.089844 168.128906 192.234375 C 165.902344 190.367188 162.855469 190.109375 160.351562 191.5625 L 156.976562 193.535156 C 156.574219 193.078125 156.179688 192.625 155.808594 192.167969 L 158.347656 189.171875 C 160.226562 186.957031 160.496094 183.914062 159.046875 181.40625 C 157.601562 178.894531 154.820312 177.613281 151.960938 178.128906 L 148.097656 178.839844 C 147.886719 178.292969 147.683594 177.738281 147.492188 177.183594 L 150.90625 175.238281 C 153.417969 173.800781 154.722656 171.035156 154.226562 168.183594 C 153.726562 165.328125 151.550781 163.175781 148.691406 162.6875 L 144.816406 162.015625 C 144.808594 161.71875 144.808594 161.414062 144.808594 161.117188 C 144.808594 160.820312 144.808594 160.511719 144.816406 160.214844 L 148.691406 159.546875 C 151.550781 159.058594 153.726562 156.902344 154.226562 154.050781 C 154.734375 151.195312 153.429688 148.429688 150.90625 146.992188 L 147.492188 145.050781 C 147.683594 144.492188 147.886719 143.9375 148.097656 143.390625 L 151.960938 144.089844 C 154.820312 144.617188 157.601562 143.324219 159.046875 140.828125 C 160.496094 138.316406 160.226562 135.273438 158.359375 133.0625 L 155.816406 130.0625 C 156.191406 129.605469 156.574219 129.144531 156.976562 128.695312 L 160.351562 130.65625 C 162.855469 132.121094 165.914062 131.863281 168.128906 129.996094 C 170.355469 128.140625 171.140625 125.179688 170.132812 122.460938 L 168.769531 118.804688 C 169.28125 118.496094 169.796875 118.199219 170.316406 117.914062 L 172.835938 120.9375 C 174.6875 123.160156 177.640625 123.957031 180.363281 122.96875 C 183.089844 121.984375 184.84375 119.472656 184.832031 116.574219 L 184.8125 112.648438 C 185.398438 112.53125 185.984375 112.425781 186.570312 112.339844 L 187.882812 116.007812 C 188.859375 118.738281 191.363281 120.5 194.269531 120.5 C 197.175781 120.5 199.675781 118.738281 200.65625 116.007812 L 201.96875 112.339844 C 202.554688 112.425781 203.148438 112.53125 203.734375 112.648438 L 203.714844 116.582031 C 203.695312 119.472656 205.449219 121.984375 208.171875 122.96875 C 210.898438 123.957031 213.851562 123.160156 215.710938 120.9375 L 218.222656 117.914062 C 218.742188 118.199219 219.257812 118.496094 219.765625 118.804688 L 218.414062 122.460938 C 217.398438 125.179688 218.183594 128.140625 220.410156 129.996094 C 222.632812 131.863281 225.683594 132.121094 228.1875 130.667969 L 231.5625 128.695312 C 231.964844 129.15625 232.355469 129.605469 232.730469 130.0625 L 230.191406 133.0625 C 228.308594 135.273438 228.042969 138.316406 229.488281 140.828125 C 230.9375 143.335938 233.71875 144.617188 236.578125 144.101562 L 240.441406 143.390625 C 240.652344 143.9375 240.851562 144.492188 241.042969 145.050781 L 237.632812 146.992188 C 235.117188 148.429688 233.816406 151.195312 234.3125 154.050781 C 234.8125 156.902344 236.988281 159.058594 239.847656 159.546875 L 243.71875 160.214844 C 243.730469 160.511719 243.730469 160.820312 243.730469 161.117188 C 243.730469 161.414062 243.730469 161.71875 243.71875 162.015625 L 239.847656 162.6875 C 236.988281 163.175781 234.8125 165.328125 234.3125 168.183594 C 233.804688 171.035156 235.109375 173.800781 237.632812 175.238281 L 241.042969 177.183594 C 240.851562 177.738281 240.652344 178.292969 240.441406 178.839844 L 236.578125 178.128906 C 234.417969 177.746094 232.300781 178.371094 230.726562 179.835938 C 230.046875 180.484375 229.546875 181.261719 229.171875 182.105469 L 226.363281 178.847656 C 226.410156 178.65625 226.480469 178.464844 226.480469 178.273438 C 226.480469 177.632812 226.230469 177 225.757812 176.53125 C 225.25 176.023438 224.523438 175.832031 223.8125 175.890625 L 221.234375 172.902344 C 222.875 169.175781 223.726562 165.222656 223.726562 161.117188 C 223.726562 144.894531 210.511719 131.703125 194.269531 131.703125 C 178.023438 131.703125 164.8125 144.894531 164.8125 161.117188 C 164.8125 177.335938 178.023438 190.53125 194.269531 190.53125 C 198.382812 190.53125 202.34375 189.675781 206.074219 188.039062 L 218.308594 198.574219 C 218.261719 198.964844 218.261719 199.367188 218.40625 199.769531 Z M 240.410156 210.664062 C 239.460938 209.707031 239.460938 208.148438 240.410156 207.199219 C 241.371094 206.242188 242.933594 206.242188 243.894531 207.191406 C 244.84375 208.148438 244.84375 209.707031 243.894531 210.664062 C 242.933594 211.613281 241.371094 211.613281 240.410156 210.664062 Z M 201.632812 184.21875 L 201.875 184.421875 C 201.796875 184.449219 201.710938 184.460938 201.632812 184.488281 Z M 191.8125 175.765625 L 196.722656 179.996094 L 196.722656 185.503906 C 195.910156 185.578125 195.09375 185.628906 194.269531 185.628906 C 193.445312 185.628906 192.621094 185.578125 191.8125 185.503906 Z M 181.535156 168.46875 C 182.828125 170.691406 184.679688 172.539062 186.90625 173.832031 L 186.90625 184.496094 C 179.28125 182.09375 173.257812 176.082031 170.851562 168.46875 Z M 186.90625 148.398438 C 184.679688 149.691406 182.828125 151.539062 181.535156 153.761719 L 170.851562 153.761719 C 173.257812 146.148438 179.28125 140.136719 186.90625 137.734375 Z M 196.722656 146.628906 C 195.917969 146.496094 195.101562 146.410156 194.269531 146.410156 C 193.433594 146.410156 192.621094 146.496094 191.8125 146.628906 L 191.8125 136.726562 C 192.621094 136.652344 193.445312 136.605469 194.269531 136.605469 C 195.09375 136.605469 195.917969 136.652344 196.722656 136.726562 Z M 207.003906 153.761719 C 205.707031 151.539062 203.859375 149.691406 201.632812 148.398438 L 201.632812 137.734375 C 209.257812 140.136719 215.277344 146.148438 217.6875 153.761719 Z M 217.40625 168.46875 L 217.667969 168.46875 C 217.648438 168.546875 217.628906 168.621094 217.609375 168.699219 Z M 208.941406 158.664062 L 218.691406 158.664062 C 218.769531 159.46875 218.816406 160.292969 218.816406 161.117188 C 218.816406 161.9375 218.769531 162.753906 218.683594 163.566406 L 213.167969 163.566406 Z M 169.722656 161.117188 C 169.722656 160.273438 169.769531 159.441406 169.84375 158.617188 C 169.921875 158.625 169.980469 158.664062 170.054688 158.664062 L 179.761719 158.664062 C 179.625 159.46875 179.539062 160.28125 179.539062 161.117188 C 179.539062 161.949219 179.625 162.761719 179.761719 163.566406 L 169.84375 163.566406 C 169.769531 162.761719 169.722656 161.9375 169.722656 161.117188 Z M 194.269531 170.921875 C 188.851562 170.921875 184.449219 166.527344 184.449219 161.117188 C 184.449219 155.707031 188.851562 151.3125 194.269531 151.3125 C 199.6875 151.3125 204.089844 155.707031 204.089844 161.117188 C 204.089844 166.527344 199.6875 170.921875 194.269531 170.921875 Z M 198.632812 175.160156 C 203.253906 173.734375 206.898438 170.085938 208.335938 165.472656 L 239.855469 201.972656 C 238.792969 202.324219 237.785156 202.890625 236.941406 203.734375 C 236.105469 204.566406 235.539062 205.570312 235.1875 206.636719 Z M 241.878906 216.382812 C 243.394531 216.382812 244.910156 215.941406 246.203125 215.070312 C 246.617188 214.800781 247 214.484375 247.363281 214.132812 C 247.410156 214.085938 247.441406 214.027344 247.488281 213.980469 C 250.203125 211.125 250.335938 206.617188 247.746094 203.617188 L 233.085938 186.632812 C 233.382812 186.164062 233.554688 185.617188 233.488281 185.035156 C 233.410156 184.449219 233.652344 183.828125 234.101562 183.40625 C 234.398438 183.117188 234.917969 182.8125 235.695312 182.957031 L 241.523438 184.019531 C 242.644531 184.21875 243.757812 183.625 244.21875 182.574219 C 245.035156 180.6875 245.742188 178.722656 246.339844 176.742188 C 246.671875 175.648438 246.203125 174.472656 245.207031 173.90625 L 240.066406 170.976562 C 239.003906 170.375 239.097656 169.339844 239.144531 169.035156 C 239.203125 168.726562 239.472656 167.722656 240.671875 167.511719 L 246.511719 166.515625 C 247.632812 166.324219 248.476562 165.375 248.542969 164.238281 C 248.601562 163.203125 248.640625 162.160156 248.640625 161.117188 C 248.640625 160.070312 248.601562 159.027344 248.542969 157.996094 C 248.476562 156.855469 247.632812 155.90625 246.511719 155.714844 L 240.671875 154.71875 C 239.472656 154.507812 239.203125 153.503906 239.144531 153.195312 C 239.097656 152.890625 239.003906 151.855469 240.066406 151.253906 L 245.207031 148.324219 C 246.203125 147.757812 246.671875 146.589844 246.339844 145.488281 C 245.742188 143.496094 245.023438 141.535156 244.21875 139.65625 C 243.769531 138.605469 242.644531 138.011719 241.523438 138.210938 L 235.695312 139.273438 C 234.503906 139.503906 233.902344 138.644531 233.738281 138.375 C 233.585938 138.105469 233.144531 137.160156 233.929688 136.230469 L 237.765625 131.710938 C 238.503906 130.839844 238.542969 129.574219 237.859375 128.667969 C 236.664062 127.066406 235.308594 125.457031 233.832031 123.898438 C 233.046875 123.066406 231.792969 122.882812 230.804688 123.457031 L 225.710938 126.425781 C 224.65625 127.046875 223.804688 126.445312 223.5625 126.242188 C 223.332031 126.050781 222.585938 125.316406 223.015625 124.164062 L 225.058594 118.640625 C 225.460938 117.570312 225.070312 116.371094 224.109375 115.738281 C 222.382812 114.609375 220.570312 113.566406 218.722656 112.628906 C 217.695312 112.109375 216.449219 112.371094 215.71875 113.25 L 211.933594 117.808594 C 211.15625 118.746094 210.140625 118.476562 209.851562 118.363281 C 209.5625 118.257812 208.613281 117.816406 208.625 116.601562 L 208.644531 110.675781 C 208.652344 109.535156 207.867188 108.539062 206.753906 108.28125 C 204.742188 107.8125 202.667969 107.449219 200.617188 107.207031 C 199.464844 107.054688 198.402344 107.746094 198.019531 108.816406 L 196.035156 114.351562 C 195.621094 115.511719 194.574219 115.597656 194.269531 115.597656 C 193.960938 115.597656 192.917969 115.511719 192.503906 114.351562 L 190.519531 108.816406 C 190.136719 107.746094 189.070312 107.066406 187.929688 107.207031 C 185.878906 107.4375 183.808594 107.800781 181.785156 108.28125 C 180.671875 108.539062 179.886719 109.535156 179.894531 110.675781 L 179.921875 116.601562 C 179.921875 117.816406 178.972656 118.257812 178.6875 118.363281 C 178.398438 118.46875 177.390625 118.738281 176.605469 117.796875 L 172.816406 113.25 C 172.089844 112.371094 170.851562 112.109375 169.828125 112.628906 C 167.957031 113.566406 166.144531 114.621094 164.425781 115.738281 C 163.476562 116.371094 163.074219 117.570312 163.476562 118.640625 L 165.53125 124.164062 C 165.953125 125.316406 165.214844 126.050781 164.972656 126.242188 C 164.734375 126.445312 163.882812 127.046875 162.824219 126.425781 L 157.734375 123.457031 C 156.746094 122.882812 155.5 123.066406 154.714844 123.886719 C 153.238281 125.457031 151.886719 127.058594 150.6875 128.65625 C 149.996094 129.574219 150.035156 130.839844 150.773438 131.710938 L 154.609375 136.230469 C 155.394531 137.160156 154.953125 138.105469 154.800781 138.367188 C 154.648438 138.632812 154.050781 139.496094 152.84375 139.273438 L 147.011719 138.210938 C 145.902344 138.019531 144.78125 138.605469 144.320312 139.65625 C 143.503906 141.542969 142.792969 143.507812 142.199219 145.488281 C 141.863281 146.582031 142.335938 147.757812 143.332031 148.324219 L 148.472656 151.253906 C 149.535156 151.855469 149.441406 152.890625 149.390625 153.195312 C 149.335938 153.503906 149.066406 154.507812 147.867188 154.71875 L 142.027344 155.714844 C 140.90625 155.90625 140.0625 156.855469 139.996094 157.996094 C 139.9375 159.027344 139.898438 160.070312 139.898438 161.117188 C 139.898438 162.160156 139.9375 163.203125 139.996094 164.238281 C 140.0625 165.375 140.90625 166.324219 142.027344 166.515625 L 147.867188 167.511719 C 149.066406 167.722656 149.335938 168.726562 149.390625 169.035156 C 149.441406 169.339844 149.535156 170.375 148.472656 170.976562 L 143.332031 173.90625 C 142.335938 174.472656 141.863281 175.640625 142.199219 176.742188 C 142.792969 178.734375 143.511719 180.695312 144.320312 182.574219 C 144.769531 183.617188 145.882812 184.210938 147.011719 184.019531 L 152.84375 182.957031 C 154.042969 182.734375 154.648438 183.589844 154.800781 183.855469 C 154.953125 184.125 155.394531 185.070312 154.609375 186 L 150.773438 190.519531 C 150.035156 191.390625 149.996094 192.65625 150.675781 193.566406 C 151.875 195.164062 153.226562 196.773438 154.703125 198.332031 C 155.492188 199.167969 156.746094 199.347656 157.734375 198.773438 L 162.824219 195.804688 C 163.882812 195.183594 164.734375 195.785156 164.972656 195.988281 C 165.203125 196.179688 165.953125 196.917969 165.519531 198.066406 L 163.476562 203.589844 C 163.074219 204.664062 163.46875 205.859375 164.425781 206.492188 C 166.144531 207.621094 167.957031 208.664062 169.816406 209.601562 C 170.84375 210.121094 172.078125 209.863281 172.816406 208.980469 L 176.605469 204.421875 C 177.382812 203.496094 178.398438 203.761719 178.6875 203.867188 C 178.972656 203.972656 179.921875 204.414062 179.914062 205.628906 L 179.894531 211.554688 C 179.886719 212.695312 180.671875 213.691406 181.785156 213.949219 C 183.796875 214.417969 185.867188 214.78125 187.921875 215.023438 C 188.027344 215.03125 188.113281 215.042969 188.207031 215.042969 C 189.234375 215.042969 190.164062 214.398438 190.519531 213.414062 L 192.503906 207.878906 C 192.917969 206.722656 193.960938 206.636719 194.269531 206.636719 C 194.574219 206.636719 195.621094 206.722656 196.035156 207.878906 L 198.019531 213.414062 C 198.402344 214.484375 199.476562 215.167969 200.605469 215.023438 C 202.660156 214.792969 204.730469 214.429688 206.753906 213.949219 C 207.867188 213.691406 208.652344 212.695312 208.644531 211.554688 L 208.613281 205.628906 C 208.613281 204.414062 209.5625 203.972656 209.851562 203.867188 C 210.140625 203.761719 211.144531 203.484375 211.933594 204.433594 L 215.71875 208.980469 C 216.449219 209.863281 217.6875 210.121094 218.710938 209.601562 C 220.582031 208.664062 222.394531 207.613281 224.109375 206.492188 C 224.792969 206.042969 225.175781 205.285156 225.195312 204.507812 L 236.835938 214.515625 C 238.28125 215.761719 240.085938 216.382812 241.878906 216.382812 " fill-opacity="1" fill-rule="nonzero"/><path fill="#f8f4eb" d="M 193.339844 129.050781 C 193.625 129.171875 193.953125 129.25 194.269531 129.25 C 194.910156 129.25 195.542969 128.980469 196.015625 128.542969 C 196.457031 128.074219 196.722656 127.441406 196.722656 126.800781 C 196.722656 126.15625 196.457031 125.527344 196.015625 125.054688 C 195.324219 124.375 194.238281 124.175781 193.339844 124.539062 C 193.011719 124.664062 192.746094 124.835938 192.523438 125.054688 C 192.082031 125.527344 191.8125 126.15625 191.8125 126.800781 C 191.8125 127.441406 192.082031 128.074219 192.523438 128.542969 C 192.746094 128.761719 193.011719 128.933594 193.339844 129.050781 " fill-opacity="1" fill-rule="nonzero"/><path fill="#f8f4eb" d="M 164.515625 146.410156 C 165.15625 146.410156 165.789062 146.140625 166.230469 145.699219 C 166.699219 145.230469 166.96875 144.597656 166.96875 143.957031 C 166.96875 143.316406 166.699219 142.683594 166.230469 142.214844 C 165.328125 141.304688 163.679688 141.304688 162.769531 142.214844 C 162.308594 142.683594 162.058594 143.316406 162.058594 143.957031 C 162.058594 144.597656 162.308594 145.230469 162.769531 145.699219 C 163.238281 146.140625 163.851562 146.410156 164.515625 146.410156 " fill-opacity="1" fill-rule="nonzero"/><path fill="#f8f4eb" d="M 162.769531 176.53125 C 162.308594 177 162.058594 177.632812 162.058594 178.273438 C 162.058594 178.914062 162.308594 179.546875 162.769531 180.015625 C 163.210938 180.457031 163.851562 180.726562 164.496094 180.726562 C 165.15625 180.726562 165.789062 180.457031 166.230469 180.015625 C 166.699219 179.546875 166.96875 178.914062 166.96875 178.273438 C 166.96875 177.632812 166.699219 177 166.230469 176.53125 C 165.328125 175.621094 163.679688 175.621094 162.769531 176.53125 " fill-opacity="1" fill-rule="nonzero"/><path fill="#f8f4eb" d="M 196.523438 194.503906 C 196.472656 194.351562 196.40625 194.207031 196.300781 194.082031 C 196.207031 193.9375 196.109375 193.8125 196.015625 193.691406 C 195.101562 192.78125 193.453125 192.78125 192.523438 193.691406 C 192.082031 194.160156 191.8125 194.789062 191.8125 195.433594 C 191.8125 196.074219 192.082031 196.707031 192.523438 197.175781 C 192.992188 197.617188 193.625 197.882812 194.269531 197.882812 C 194.910156 197.882812 195.542969 197.617188 196.015625 197.175781 C 196.109375 197.050781 196.207031 196.925781 196.300781 196.800781 C 196.40625 196.65625 196.472656 196.515625 196.523438 196.359375 C 196.597656 196.21875 196.648438 196.074219 196.675781 195.921875 C 196.695312 195.75 196.722656 195.574219 196.722656 195.433594 C 196.722656 195.261719 196.695312 195.117188 196.675781 194.945312 C 196.648438 194.789062 196.597656 194.648438 196.523438 194.503906 " fill-opacity="1" fill-rule="nonzero"/><path fill="#f8f4eb" d="M 224.023438 146.410156 C 224.6875 146.410156 225.300781 146.140625 225.757812 145.699219 C 226.230469 145.230469 226.496094 144.597656 226.496094 143.957031 C 226.496094 143.316406 226.230469 142.683594 225.757812 142.214844 C 224.859375 141.304688 223.207031 141.304688 222.296875 142.214844 C 221.835938 142.683594 221.589844 143.316406 221.589844 143.957031 C 221.589844 144.597656 221.835938 145.230469 222.296875 145.699219 C 222.738281 146.140625 223.382812 146.410156 224.023438 146.410156 " fill-opacity="1" fill-rule="nonzero"/><g fill="#f8f4eb" fill-opacity="1"><g transform="translate(113.704517, 258.817922)"><g><path d="M 13.375 -13.722656 L 13.796875 -17.398438 C 12.722656 -17.875 11.523438 -18.097656 10.273438 -18.097656 C -1.824219 -18.097656 -1.851562 0.0507812 10.273438 0.0507812 C 11.523438 0.0507812 13.097656 -0.25 14.199219 -0.699219 L 13.722656 -4.398438 C 13.046875 -4.050781 11.824219 -3.601562 10.273438 -3.601562 C 3.199219 -3.601562 3.199219 -14.5 10.273438 -14.5 C 11.824219 -14.5 12.699219 -14.074219 13.375 -13.722656 Z M 13.375 -13.722656 "/></g></g></g><g fill="#f8f4eb" fill-opacity="1"><g transform="translate(128.752135, 258.817922)"><g><path d="M 6.375 0 L 9.925781 0 L 9.925781 -8.050781 L 16.171875 -17.875 L 11.796875 -17.875 L 8.148438 -11.722656 L 4.5 -17.875 L 0.148438 -17.875 L 6.375 -8.050781 Z M 6.375 0 "/></g></g></g><g fill="#f8f4eb" fill-opacity="1"><g transform="translate(144.974568, 258.817922)"><g><path d="M 13.375 -13.722656 L 13.796875 -17.398438 C 12.722656 -17.875 11.523438 -18.097656 10.273438 -18.097656 C -1.824219 -18.097656 -1.851562 0.0507812 10.273438 0.0507812 C 11.523438 0.0507812 13.097656 -0.25 14.199219 -0.699219 L 13.722656 -4.398438 C 13.046875 -4.050781 11.824219 -3.601562 10.273438 -3.601562 C 3.199219 -3.601562 3.199219 -14.5 10.273438 -14.5 C 11.824219 -14.5 12.699219 -14.074219 13.375 -13.722656 Z M 13.375 -13.722656 "/></g></g></g><g fill="#f8f4eb" fill-opacity="1"><g transform="translate(160.022186, 258.817922)"><g><path d="M 2 -17.875 L 2 0 L 11.25 0 L 11.25 -3.574219 L 5.574219 -3.574219 L 5.574219 -17.875 Z M 2 -17.875 "/></g></g></g><g fill="#f8f4eb" fill-opacity="1"><g transform="translate(172.345229, 258.817922)"><g><path d="M 10.597656 0.25 C 22.898438 0.25 22.898438 -18.171875 10.597656 -18.171875 C -1.699219 -18.171875 -1.699219 0.25 10.597656 0.25 Z M 10.597656 -3.449219 C 3.449219 -3.449219 3.449219 -14.5 10.597656 -14.5 C 17.75 -14.5 17.75 -3.449219 10.597656 -3.449219 Z M 10.597656 -3.449219 "/></g></g></g><g fill="#f8f4eb" fill-opacity="1"><g transform="translate(193.516878, 258.817922)"><g><path d="M 8.523438 0 L 8.523438 -14.296875 L 12.972656 -14.296875 L 12.972656 -17.847656 L 0.5 -17.847656 L 0.5 -14.296875 L 4.949219 -14.296875 L 4.949219 0 Z M 8.523438 0 "/></g></g></g><g fill="#f8f4eb" fill-opacity="1"><g transform="translate(207.189717, 258.817922)"><g><path d="M 10.898438 0 L 14.949219 0 L 10.800781 -7.375 C 16.046875 -8.898438 15.421875 -17.875 9.050781 -17.875 L 2 -17.875 L 2 0 L 5.574219 0 L 5.574219 -6.824219 L 7.300781 -6.824219 Z M 5.574219 -10.300781 L 5.574219 -14.296875 L 8.722656 -14.296875 C 11.148438 -14.296875 11.148438 -10.300781 8.722656 -10.300781 Z M 5.574219 -10.300781 "/></g></g></g><g fill="#f8f4eb" fill-opacity="1"><g transform="translate(222.51229, 258.817922)"><g><path d="M 10.597656 0.25 C 22.898438 0.25 22.898438 -18.171875 10.597656 -18.171875 C -1.699219 -18.171875 -1.699219 0.25 10.597656 0.25 Z M 10.597656 -3.449219 C 3.449219 -3.449219 3.449219 -14.5 10.597656 -14.5 C 17.75 -14.5 17.75 -3.449219 10.597656 -3.449219 Z M 10.597656 -3.449219 "/></g></g></g><g fill="#f8f4eb" fill-opacity="1"><g transform="translate(243.683939, 258.817922)"><g><path d="M 5.574219 -9.722656 L 14.625 0.375 L 15.574219 0.375 L 15.574219 -17.847656 L 11.972656 -17.847656 L 11.972656 -7.75 L 2.949219 -18.25 L 2 -18.25 L 2 0 L 5.574219 0 Z M 5.574219 -9.722656 "/></g></g></g></svg>