<svg xmlns="http://www.w3.org/2000/svg" xmlns:xlink="http://www.w3.org/1999/xlink" width="500" zoomAndPan="magnify" viewBox="0 0 375 374.999991" height="500" preserveAspectRatio="xMidYMid meet" version="1.0"><defs><g/><clipPath id="305af247ed"><path d="M 33 232 L 47 232 L 47 241.84375 L 33 241.84375 Z M 33 232 " clip-rule="nonzero"/></clipPath><clipPath id="130b08d562"><path d="M 12.53125 154 L 32 154 L 32 231 L 12.53125 231 Z M 12.53125 154 " clip-rule="nonzero"/></clipPath><clipPath id="93aecba80b"><path d="M 22 148.09375 L 112 148.09375 L 112 238 L 22 238 Z M 22 148.09375 " clip-rule="nonzero"/></clipPath></defs><g clip-path="url(#305af247ed)"><path fill="#f8f4eb" d="M 44.578125 241.765625 C 45.328125 241.765625 46.046875 241.335938 46.394531 240.609375 C 46.863281 239.609375 46.425781 238.417969 45.421875 237.949219 C 42.503906 236.582031 39.695312 234.921875 37.082031 233.011719 C 36.183594 232.355469 34.9375 232.550781 34.28125 233.441406 C 33.632812 234.335938 33.828125 235.585938 34.71875 236.242188 C 37.535156 238.300781 40.570312 240.101562 43.734375 241.578125 C 44.007812 241.703125 44.289062 241.765625 44.578125 241.765625 " fill-opacity="1" fill-rule="nonzero"/></g><g clip-path="url(#130b08d562)"><path fill="#f8f4eb" d="M 16.535156 192.5625 C 16.535156 179.574219 21.488281 167.261719 30.476562 157.894531 C 31.246094 157.097656 31.214844 155.832031 30.414062 155.0625 C 29.617188 154.296875 28.351562 154.320312 27.582031 155.125 C 17.875 165.242188 12.53125 178.535156 12.53125 192.5625 C 12.53125 206.589844 17.875 219.882812 27.582031 230 C 27.980469 230.414062 28.507812 230.617188 29.03125 230.617188 C 29.53125 230.617188 30.03125 230.429688 30.414062 230.0625 C 31.214844 229.296875 31.246094 228.027344 30.476562 227.230469 C 21.488281 217.867188 16.535156 205.550781 16.535156 192.5625 " fill-opacity="1" fill-rule="nonzero"/></g><g clip-path="url(#93aecba80b)"><path fill="#f8f4eb" d="M 86.304688 224.148438 L 87.414062 227.136719 C 87 227.386719 86.578125 227.628906 86.15625 227.863281 L 84.097656 225.390625 C 82.585938 223.578125 80.179688 222.917969 77.957031 223.734375 C 75.734375 224.539062 74.300781 226.589844 74.308594 228.960938 L 74.324219 232.167969 C 73.847656 232.261719 73.371094 232.347656 72.894531 232.417969 L 71.820312 229.421875 C 71.023438 227.191406 68.980469 225.753906 66.609375 225.753906 C 64.238281 225.753906 62.199219 227.191406 61.398438 229.421875 L 60.328125 232.417969 C 59.851562 232.347656 59.367188 232.261719 58.886719 232.167969 L 58.902344 228.953125 C 58.917969 226.589844 57.488281 224.539062 55.265625 223.734375 C 53.042969 222.917969 50.625 223.570312 49.117188 225.390625 L 47.066406 227.863281 C 46.644531 227.628906 46.21875 227.386719 45.804688 227.136719 L 46.910156 224.148438 C 47.738281 221.925781 47.097656 219.507812 45.28125 217.992188 C 43.464844 216.464844 40.976562 216.253906 38.9375 217.441406 L 36.183594 219.054688 C 35.851562 218.679688 35.53125 218.3125 35.226562 217.9375 L 37.300781 215.488281 C 38.835938 213.679688 39.054688 211.191406 37.871094 209.140625 C 36.691406 207.09375 34.421875 206.042969 32.089844 206.464844 L 28.9375 207.046875 C 28.765625 206.597656 28.601562 206.144531 28.445312 205.691406 L 31.230469 204.105469 C 33.277344 202.929688 34.34375 200.667969 33.9375 198.335938 C 33.53125 196.007812 31.753906 194.246094 29.421875 193.847656 L 26.261719 193.300781 C 26.253906 193.054688 26.253906 192.804688 26.253906 192.5625 C 26.253906 192.320312 26.253906 192.070312 26.261719 191.828125 L 29.421875 191.28125 C 31.753906 190.882812 33.53125 189.121094 33.9375 186.789062 C 34.351562 184.457031 33.285156 182.195312 31.230469 181.023438 L 28.445312 179.433594 C 28.601562 178.980469 28.765625 178.527344 28.9375 178.082031 L 32.089844 178.652344 C 34.421875 179.082031 36.691406 178.027344 37.871094 175.984375 C 39.054688 173.933594 38.835938 171.445312 37.308594 169.640625 L 35.234375 167.191406 C 35.539062 166.816406 35.851562 166.441406 36.183594 166.070312 L 38.9375 167.675781 C 40.976562 168.871094 43.472656 168.660156 45.28125 167.136719 C 47.097656 165.617188 47.738281 163.199219 46.917969 160.980469 L 45.804688 157.988281 C 46.21875 157.738281 46.644531 157.496094 47.066406 157.261719 L 49.125 159.734375 C 50.632812 161.550781 53.042969 162.199219 55.265625 161.394531 C 57.488281 160.585938 58.917969 158.539062 58.910156 156.167969 L 58.894531 152.960938 C 59.375 152.867188 59.851562 152.777344 60.328125 152.707031 L 61.398438 155.707031 C 62.199219 157.933594 64.238281 159.375 66.609375 159.375 C 68.980469 159.375 71.023438 157.933594 71.820312 155.707031 L 72.894531 152.707031 C 73.371094 152.777344 73.855469 152.867188 74.332031 152.960938 L 74.316406 156.175781 C 74.300781 158.539062 75.734375 160.585938 77.957031 161.394531 C 80.179688 162.199219 82.585938 161.550781 84.105469 159.734375 L 86.15625 157.261719 C 86.578125 157.496094 87 157.738281 87.414062 157.988281 L 86.3125 160.980469 C 85.484375 163.199219 86.125 165.617188 87.941406 167.136719 C 89.753906 168.660156 92.242188 168.871094 94.285156 167.683594 L 97.039062 166.070312 C 97.367188 166.449219 97.6875 166.816406 97.992188 167.191406 L 95.921875 169.640625 C 94.386719 171.445312 94.167969 173.933594 95.347656 175.984375 C 96.53125 178.035156 98.800781 179.082031 101.132812 178.660156 L 104.285156 178.082031 C 104.457031 178.527344 104.621094 178.980469 104.777344 179.433594 L 101.992188 181.023438 C 99.941406 182.195312 98.878906 184.457031 99.285156 186.789062 C 99.691406 189.121094 101.46875 190.882812 103.800781 191.28125 L 106.960938 191.828125 C 106.96875 192.070312 106.96875 192.320312 106.96875 192.5625 C 106.96875 192.804688 106.96875 193.054688 106.960938 193.300781 L 103.800781 193.847656 C 101.46875 194.246094 99.691406 196.007812 99.285156 198.335938 C 98.871094 200.667969 99.933594 202.929688 101.992188 204.105469 L 104.777344 205.691406 C 104.621094 206.144531 104.457031 206.597656 104.285156 207.046875 L 101.132812 206.464844 C 99.371094 206.152344 97.640625 206.660156 96.359375 207.859375 C 95.804688 208.390625 95.394531 209.023438 95.089844 209.714844 L 92.796875 207.054688 C 92.835938 206.898438 92.890625 206.738281 92.890625 206.582031 C 92.890625 206.058594 92.6875 205.542969 92.304688 205.160156 C 91.890625 204.746094 91.296875 204.589844 90.71875 204.636719 L 88.613281 202.195312 C 89.949219 199.152344 90.648438 195.917969 90.648438 192.5625 C 90.648438 179.308594 79.863281 168.527344 66.609375 168.527344 C 53.355469 168.527344 42.574219 179.308594 42.574219 192.5625 C 42.574219 205.816406 53.355469 216.597656 66.609375 216.597656 C 69.96875 216.597656 73.199219 215.902344 76.242188 214.5625 L 86.226562 223.171875 C 86.1875 223.492188 86.1875 223.820312 86.304688 224.148438 Z M 104.261719 233.050781 C 103.488281 232.269531 103.488281 230.992188 104.261719 230.21875 C 105.042969 229.4375 106.320312 229.4375 107.101562 230.210938 C 107.875 230.992188 107.875 232.269531 107.101562 233.050781 C 106.320312 233.828125 105.042969 233.828125 104.261719 233.050781 Z M 72.621094 211.441406 L 72.816406 211.605469 C 72.753906 211.628906 72.683594 211.636719 72.621094 211.660156 Z M 64.609375 204.535156 L 68.613281 207.992188 L 68.613281 212.492188 C 67.949219 212.554688 67.285156 212.59375 66.609375 212.59375 C 65.9375 212.59375 65.265625 212.554688 64.609375 212.492188 Z M 56.21875 198.570312 C 57.277344 200.386719 58.785156 201.898438 60.601562 202.953125 L 60.601562 211.667969 C 54.382812 209.707031 49.46875 204.792969 47.503906 198.570312 Z M 60.601562 182.171875 C 58.785156 183.230469 57.277344 184.738281 56.21875 186.554688 L 47.503906 186.554688 C 49.46875 180.335938 54.382812 175.421875 60.601562 173.457031 Z M 68.613281 180.726562 C 67.957031 180.617188 67.292969 180.546875 66.609375 180.546875 C 65.929688 180.546875 65.265625 180.617188 64.609375 180.726562 L 64.609375 172.636719 C 65.265625 172.574219 65.9375 172.535156 66.609375 172.535156 C 67.285156 172.535156 67.957031 172.574219 68.613281 172.636719 Z M 77 186.554688 C 75.945312 184.738281 74.433594 183.230469 72.621094 182.171875 L 72.621094 173.457031 C 78.839844 175.421875 83.753906 180.335938 85.71875 186.554688 Z M 85.492188 198.570312 L 85.703125 198.570312 C 85.6875 198.632812 85.671875 198.695312 85.65625 198.761719 Z M 78.582031 190.558594 L 86.539062 190.558594 C 86.601562 191.21875 86.640625 191.890625 86.640625 192.5625 C 86.640625 193.234375 86.601562 193.902344 86.53125 194.566406 L 82.03125 194.566406 Z M 46.582031 192.5625 C 46.582031 191.875 46.621094 191.195312 46.683594 190.519531 C 46.746094 190.527344 46.792969 190.558594 46.855469 190.558594 L 54.773438 190.558594 C 54.664062 191.21875 54.59375 191.882812 54.59375 192.5625 C 54.59375 193.242188 54.664062 193.910156 54.773438 194.566406 L 46.683594 194.566406 C 46.621094 193.910156 46.582031 193.234375 46.582031 192.5625 Z M 66.609375 200.574219 C 62.191406 200.574219 58.597656 196.984375 58.597656 192.5625 C 58.597656 188.144531 62.191406 184.550781 66.609375 184.550781 C 71.03125 184.550781 74.621094 188.144531 74.621094 192.5625 C 74.621094 196.984375 71.03125 200.574219 66.609375 200.574219 Z M 70.171875 204.039062 C 73.941406 202.875 76.914062 199.894531 78.089844 196.125 L 103.808594 225.949219 C 102.9375 226.238281 102.117188 226.699219 101.429688 227.386719 C 100.746094 228.066406 100.285156 228.890625 99.996094 229.757812 Z M 105.457031 237.722656 C 106.695312 237.722656 107.929688 237.363281 108.988281 236.652344 C 109.324219 236.429688 109.636719 236.171875 109.933594 235.882812 C 109.972656 235.84375 109.996094 235.796875 110.035156 235.757812 C 112.25 233.425781 112.359375 229.742188 110.246094 227.292969 L 98.285156 213.414062 C 98.527344 213.03125 98.667969 212.585938 98.613281 212.105469 C 98.550781 211.628906 98.746094 211.121094 99.113281 210.777344 C 99.355469 210.542969 99.777344 210.292969 100.410156 210.410156 L 105.167969 211.277344 C 106.085938 211.441406 106.992188 210.957031 107.367188 210.097656 C 108.03125 208.554688 108.609375 206.953125 109.097656 205.332031 C 109.371094 204.441406 108.988281 203.476562 108.171875 203.015625 L 103.980469 200.621094 C 103.109375 200.128906 103.1875 199.285156 103.226562 199.035156 C 103.273438 198.785156 103.496094 197.960938 104.472656 197.789062 L 109.238281 196.976562 C 110.152344 196.820312 110.839844 196.046875 110.894531 195.113281 C 110.941406 194.269531 110.972656 193.417969 110.972656 192.5625 C 110.972656 191.710938 110.941406 190.859375 110.894531 190.011719 C 110.839844 189.082031 110.152344 188.308594 109.238281 188.152344 L 104.472656 187.335938 C 103.496094 187.164062 103.273438 186.34375 103.226562 186.09375 C 103.1875 185.84375 103.109375 184.996094 103.980469 184.503906 L 108.171875 182.109375 C 108.988281 181.648438 109.371094 180.695312 109.097656 179.792969 C 108.609375 178.167969 108.023438 176.5625 107.367188 175.03125 C 107 174.167969 106.085938 173.683594 105.167969 173.847656 L 100.410156 174.71875 C 99.441406 174.90625 98.949219 174.199219 98.816406 173.980469 C 98.691406 173.761719 98.332031 172.988281 98.972656 172.230469 L 102.101562 168.535156 C 102.703125 167.824219 102.734375 166.792969 102.179688 166.046875 C 101.203125 164.742188 100.097656 163.425781 98.894531 162.152344 C 98.253906 161.472656 97.226562 161.324219 96.421875 161.792969 L 92.265625 164.21875 C 91.40625 164.726562 90.710938 164.234375 90.515625 164.070312 C 90.324219 163.914062 89.714844 163.308594 90.066406 162.371094 L 91.734375 157.855469 C 92.0625 156.980469 91.742188 156.003906 90.960938 155.484375 C 89.550781 154.5625 88.074219 153.710938 86.5625 152.945312 C 85.726562 152.519531 84.707031 152.730469 84.113281 153.453125 L 81.023438 157.175781 C 80.390625 157.941406 79.558594 157.722656 79.324219 157.628906 C 79.089844 157.542969 78.316406 157.183594 78.324219 156.191406 L 78.339844 151.347656 C 78.347656 150.417969 77.707031 149.601562 76.796875 149.390625 C 75.15625 149.007812 73.464844 148.710938 71.789062 148.515625 C 70.851562 148.390625 69.984375 148.953125 69.671875 149.828125 L 68.050781 154.351562 C 67.714844 155.296875 66.859375 155.367188 66.609375 155.367188 C 66.359375 155.367188 65.507812 155.296875 65.171875 154.351562 L 63.550781 149.828125 C 63.238281 148.953125 62.371094 148.398438 61.4375 148.515625 C 59.765625 148.703125 58.074219 149 56.421875 149.390625 C 55.515625 149.601562 54.875 150.417969 54.882812 151.347656 L 54.90625 156.191406 C 54.90625 157.183594 54.132812 157.542969 53.894531 157.628906 C 53.660156 157.714844 52.839844 157.933594 52.199219 157.167969 L 49.109375 153.453125 C 48.511719 152.730469 47.503906 152.519531 46.667969 152.945312 C 45.140625 153.710938 43.660156 154.570312 42.261719 155.484375 C 41.488281 156.003906 41.160156 156.980469 41.488281 157.855469 L 43.160156 162.371094 C 43.503906 163.308594 42.902344 163.914062 42.707031 164.070312 C 42.511719 164.234375 41.816406 164.726562 40.953125 164.21875 L 36.800781 161.792969 C 35.996094 161.324219 34.976562 161.472656 34.335938 162.144531 C 33.128906 163.425781 32.027344 164.734375 31.050781 166.039062 C 30.484375 166.792969 30.515625 167.824219 31.121094 168.535156 L 34.25 172.230469 C 34.890625 172.988281 34.53125 173.761719 34.40625 173.972656 C 34.28125 174.191406 33.796875 174.898438 32.808594 174.71875 L 28.050781 173.847656 C 27.144531 173.691406 26.230469 174.167969 25.855469 175.03125 C 25.1875 176.570312 24.609375 178.175781 24.125 179.792969 C 23.851562 180.6875 24.234375 181.648438 25.046875 182.109375 L 29.242188 184.503906 C 30.109375 184.996094 30.03125 185.84375 29.992188 186.09375 C 29.945312 186.34375 29.726562 187.164062 28.75 187.335938 L 23.984375 188.152344 C 23.070312 188.308594 22.378906 189.082031 22.324219 190.011719 C 22.277344 190.859375 22.246094 191.710938 22.246094 192.5625 C 22.246094 193.417969 22.277344 194.269531 22.324219 195.113281 C 22.378906 196.046875 23.070312 196.820312 23.984375 196.976562 L 28.75 197.789062 C 29.726562 197.960938 29.945312 198.785156 29.992188 199.035156 C 30.03125 199.285156 30.109375 200.128906 29.242188 200.621094 L 25.046875 203.015625 C 24.234375 203.476562 23.851562 204.433594 24.125 205.332031 C 24.609375 206.960938 25.195312 208.5625 25.855469 210.097656 C 26.222656 210.949219 27.128906 211.433594 28.050781 211.277344 L 32.808594 210.410156 C 33.789062 210.230469 34.28125 210.925781 34.40625 211.144531 C 34.53125 211.363281 34.890625 212.136719 34.25 212.898438 L 31.121094 216.589844 C 30.515625 217.300781 30.484375 218.335938 31.042969 219.078125 C 32.019531 220.386719 33.121094 221.699219 34.328125 222.972656 C 34.96875 223.65625 35.996094 223.804688 36.800781 223.335938 L 40.953125 220.910156 C 41.816406 220.402344 42.511719 220.894531 42.707031 221.058594 C 42.894531 221.214844 43.503906 221.816406 43.152344 222.753906 L 41.488281 227.269531 C 41.160156 228.144531 41.480469 229.125 42.261719 229.640625 C 43.660156 230.5625 45.140625 231.417969 46.660156 232.183594 C 47.496094 232.605469 48.503906 232.394531 49.109375 231.675781 L 52.199219 227.949219 C 52.832031 227.191406 53.660156 227.410156 53.894531 227.496094 C 54.132812 227.582031 54.90625 227.941406 54.898438 228.9375 L 54.882812 233.777344 C 54.875 234.710938 55.515625 235.523438 56.421875 235.734375 C 58.066406 236.117188 59.757812 236.414062 61.429688 236.613281 C 61.515625 236.621094 61.585938 236.628906 61.664062 236.628906 C 62.503906 236.628906 63.261719 236.101562 63.550781 235.296875 L 65.171875 230.773438 C 65.507812 229.828125 66.359375 229.757812 66.609375 229.757812 C 66.859375 229.757812 67.714844 229.828125 68.050781 230.773438 L 69.671875 235.296875 C 69.984375 236.171875 70.859375 236.730469 71.78125 236.613281 C 73.457031 236.421875 75.148438 236.125 76.796875 235.734375 C 77.707031 235.523438 78.347656 234.710938 78.339844 233.777344 L 78.316406 228.9375 C 78.316406 227.941406 79.089844 227.582031 79.324219 227.496094 C 79.558594 227.410156 80.382812 227.183594 81.023438 227.957031 L 84.113281 231.675781 C 84.707031 232.394531 85.71875 232.605469 86.554688 232.183594 C 88.082031 231.417969 89.558594 230.554688 90.960938 229.640625 C 91.515625 229.273438 91.828125 228.65625 91.84375 228.019531 L 101.34375 236.195312 C 102.523438 237.214844 103.996094 237.722656 105.457031 237.722656 " fill-opacity="1" fill-rule="nonzero"/></g><path fill="#f8f4eb" d="M 65.851562 166.363281 C 66.085938 166.464844 66.351562 166.527344 66.609375 166.527344 C 67.136719 166.527344 67.652344 166.308594 68.035156 165.945312 C 68.394531 165.5625 68.613281 165.046875 68.613281 164.523438 C 68.613281 164 68.394531 163.480469 68.035156 163.097656 C 67.472656 162.542969 66.585938 162.378906 65.851562 162.675781 C 65.585938 162.777344 65.367188 162.917969 65.1875 163.097656 C 64.828125 163.480469 64.609375 164 64.609375 164.523438 C 64.609375 165.046875 64.828125 165.5625 65.1875 165.945312 C 65.367188 166.125 65.585938 166.265625 65.851562 166.363281 " fill-opacity="1" fill-rule="nonzero"/><path fill="#f8f4eb" d="M 42.332031 180.546875 C 42.855469 180.546875 43.371094 180.328125 43.734375 179.96875 C 44.117188 179.582031 44.335938 179.066406 44.335938 178.542969 C 44.335938 178.019531 44.117188 177.503906 43.734375 177.121094 C 42.996094 176.375 41.652344 176.375 40.90625 177.121094 C 40.53125 177.503906 40.328125 178.019531 40.328125 178.542969 C 40.328125 179.066406 40.53125 179.582031 40.90625 179.96875 C 41.292969 180.328125 41.792969 180.546875 42.332031 180.546875 " fill-opacity="1" fill-rule="nonzero"/><path fill="#f8f4eb" d="M 40.90625 205.160156 C 40.53125 205.542969 40.328125 206.058594 40.328125 206.582031 C 40.328125 207.109375 40.53125 207.625 40.90625 208.007812 C 41.269531 208.367188 41.792969 208.585938 42.316406 208.585938 C 42.855469 208.585938 43.371094 208.367188 43.734375 208.007812 C 44.117188 207.625 44.335938 207.109375 44.335938 206.582031 C 44.335938 206.058594 44.117188 205.542969 43.734375 205.160156 C 42.996094 204.417969 41.652344 204.417969 40.90625 205.160156 " fill-opacity="1" fill-rule="nonzero"/><path fill="#f8f4eb" d="M 68.449219 219.84375 C 68.410156 219.71875 68.355469 219.601562 68.269531 219.5 C 68.191406 219.382812 68.113281 219.28125 68.035156 219.179688 C 67.292969 218.4375 65.945312 218.4375 65.1875 219.179688 C 64.828125 219.5625 64.609375 220.078125 64.609375 220.605469 C 64.609375 221.128906 64.828125 221.644531 65.1875 222.027344 C 65.570312 222.386719 66.085938 222.605469 66.609375 222.605469 C 67.136719 222.605469 67.652344 222.386719 68.035156 222.027344 C 68.113281 221.925781 68.191406 221.824219 68.269531 221.722656 C 68.355469 221.605469 68.410156 221.488281 68.449219 221.363281 C 68.511719 221.246094 68.550781 221.128906 68.574219 221.003906 C 68.589844 220.863281 68.613281 220.722656 68.613281 220.605469 C 68.613281 220.464844 68.589844 220.347656 68.574219 220.203125 C 68.550781 220.078125 68.511719 219.960938 68.449219 219.84375 " fill-opacity="1" fill-rule="nonzero"/><path fill="#f8f4eb" d="M 90.890625 180.546875 C 91.429688 180.546875 91.929688 180.328125 92.304688 179.96875 C 92.6875 179.582031 92.90625 179.066406 92.90625 178.542969 C 92.90625 178.019531 92.6875 177.503906 92.304688 177.121094 C 91.570312 176.375 90.222656 176.375 89.480469 177.121094 C 89.105469 177.503906 88.902344 178.019531 88.902344 178.542969 C 88.902344 179.066406 89.105469 179.582031 89.480469 179.96875 C 89.839844 180.328125 90.363281 180.546875 90.890625 180.546875 " fill-opacity="1" fill-rule="nonzero"/><g fill="#f8f4eb" fill-opacity="1"><g transform="translate(130.848364, 203.550015)"><g><path d="M 19.792969 -20.3125 L 20.421875 -25.75 C 18.832031 -26.453125 17.054688 -26.785156 15.207031 -26.785156 C -2.699219 -26.785156 -2.738281 0.0742188 15.207031 0.0742188 C 17.054688 0.0742188 19.386719 -0.371094 21.015625 -1.035156 L 20.3125 -6.511719 C 19.3125 -5.992188 17.5 -5.328125 15.207031 -5.328125 C 4.734375 -5.328125 4.734375 -21.457031 15.207031 -21.457031 C 17.5 -21.457031 18.792969 -20.828125 19.792969 -20.3125 Z M 19.792969 -20.3125 "/></g></g></g><g fill="#f8f4eb" fill-opacity="1"><g transform="translate(153.119996, 203.550015)"><g><path d="M 9.433594 0 L 14.6875 0 L 14.6875 -11.914062 L 23.9375 -26.453125 L 17.460938 -26.453125 L 12.0625 -17.351562 L 6.660156 -26.453125 L 0.222656 -26.453125 L 9.433594 -11.914062 Z M 9.433594 0 "/></g></g></g><g fill="#f8f4eb" fill-opacity="1"><g transform="translate(177.130443, 203.550015)"><g><path d="M 19.792969 -20.3125 L 20.421875 -25.75 C 18.832031 -26.453125 17.054688 -26.785156 15.207031 -26.785156 C -2.699219 -26.785156 -2.738281 0.0742188 15.207031 0.0742188 C 17.054688 0.0742188 19.386719 -0.371094 21.015625 -1.035156 L 20.3125 -6.511719 C 19.3125 -5.992188 17.5 -5.328125 15.207031 -5.328125 C 4.734375 -5.328125 4.734375 -21.457031 15.207031 -21.457031 C 17.5 -21.457031 18.792969 -20.828125 19.792969 -20.3125 Z M 19.792969 -20.3125 "/></g></g></g><g fill="#f8f4eb" fill-opacity="1"><g transform="translate(199.402075, 203.550015)"><g><path d="M 2.960938 -26.453125 L 2.960938 0 L 16.648438 0 L 16.648438 -5.289062 L 8.25 -5.289062 L 8.25 -26.453125 Z M 2.960938 -26.453125 "/></g></g></g><g fill="#f8f4eb" fill-opacity="1"><g transform="translate(217.641129, 203.550015)"><g><path d="M 15.6875 0.371094 C 33.890625 0.371094 33.890625 -26.898438 15.6875 -26.898438 C -2.515625 -26.898438 -2.515625 0.371094 15.6875 0.371094 Z M 15.6875 -5.105469 C 5.105469 -5.105469 5.105469 -21.457031 15.6875 -21.457031 C 26.269531 -21.457031 26.269531 -5.105469 15.6875 -5.105469 Z M 15.6875 -5.105469 "/></g></g></g><g fill="#f8f4eb" fill-opacity="1"><g transform="translate(248.97679, 203.550015)"><g><path d="M 12.617188 0 L 12.617188 -21.164062 L 19.203125 -21.164062 L 19.203125 -26.417969 L 0.738281 -26.417969 L 0.738281 -21.164062 L 7.324219 -21.164062 L 7.324219 0 Z M 12.617188 0 "/></g></g></g><g fill="#f8f4eb" fill-opacity="1"><g transform="translate(269.21364, 203.550015)"><g><path d="M 16.132812 0 L 22.125 0 L 15.984375 -10.914062 C 23.753906 -13.171875 22.828125 -26.453125 13.394531 -26.453125 L 2.960938 -26.453125 L 2.960938 0 L 8.25 0 L 8.25 -10.101562 L 10.804688 -10.101562 Z M 8.25 -15.242188 L 8.25 -21.164062 L 12.914062 -21.164062 C 16.5 -21.164062 16.5 -15.242188 12.914062 -15.242188 Z M 8.25 -15.242188 "/></g></g></g><g fill="#f8f4eb" fill-opacity="1"><g transform="translate(291.892223, 203.550015)"><g><path d="M 15.6875 0.371094 C 33.890625 0.371094 33.890625 -26.898438 15.6875 -26.898438 C -2.515625 -26.898438 -2.515625 0.371094 15.6875 0.371094 Z M 15.6875 -5.105469 C 5.105469 -5.105469 5.105469 -21.457031 15.6875 -21.457031 C 26.269531 -21.457031 26.269531 -5.105469 15.6875 -5.105469 Z M 15.6875 -5.105469 "/></g></g></g><g fill="#f8f4eb" fill-opacity="1"><g transform="translate(323.227884, 203.550015)"><g><path d="M 8.25 -14.390625 L 21.644531 0.554688 L 23.050781 0.554688 L 23.050781 -26.417969 L 17.722656 -26.417969 L 17.722656 -11.46875 L 4.367188 -27.007812 L 2.960938 -27.007812 L 2.960938 0 L 8.25 0 Z M 8.25 -14.390625 "/></g></g></g></svg>