<svg xmlns="http://www.w3.org/2000/svg" xmlns:xlink="http://www.w3.org/1999/xlink" width="500" zoomAndPan="magnify" viewBox="0 0 375 374.999991" height="500" preserveAspectRatio="xMidYMid meet" version="1.0"><defs><g/><clipPath id="d790bd50e9"><path d="M 152 194 L 169 194 L 169 205.730469 L 152 205.730469 Z M 152 194 " clip-rule="nonzero"/></clipPath><clipPath id="36aeff564b"><path d="M 126.417969 98 L 150 98 L 150 192 L 126.417969 192 Z M 126.417969 98 " clip-rule="nonzero"/></clipPath><clipPath id="f392b2861c"><path d="M 138 91 L 248.667969 91 L 248.667969 201 L 138 201 Z M 138 91 " clip-rule="nonzero"/></clipPath></defs><g clip-path="url(#d790bd50e9)"><path fill="#f8f4eb" d="M 165.695312 205.628906 C 166.617188 205.628906 167.5 205.105469 167.921875 204.214844 C 168.496094 202.988281 167.960938 201.53125 166.730469 200.957031 C 163.15625 199.28125 159.710938 197.253906 156.507812 194.917969 C 155.40625 194.113281 153.882812 194.351562 153.078125 195.441406 C 152.28125 196.535156 152.519531 198.066406 153.613281 198.871094 C 157.066406 201.390625 160.785156 203.589844 164.660156 205.402344 C 164.996094 205.554688 165.339844 205.628906 165.695312 205.628906 " fill-opacity="1" fill-rule="nonzero"/></g><g clip-path="url(#36aeff564b)"><path fill="#f8f4eb" d="M 131.328125 145.414062 C 131.328125 129.519531 137.398438 114.449219 148.417969 102.988281 C 149.355469 102.011719 149.316406 100.460938 148.339844 99.519531 C 147.363281 98.582031 145.808594 98.613281 144.867188 99.597656 C 132.96875 111.976562 126.417969 128.246094 126.417969 145.414062 C 126.417969 162.582031 132.96875 178.847656 144.867188 191.230469 C 145.359375 191.738281 146 191.988281 146.640625 191.988281 C 147.257812 191.988281 147.871094 191.757812 148.339844 191.304688 C 149.316406 190.367188 149.355469 188.816406 148.417969 187.839844 C 137.398438 176.378906 131.328125 161.308594 131.328125 145.414062 " fill-opacity="1" fill-rule="nonzero"/></g><g clip-path="url(#f392b2861c)"><path fill="#f8f4eb" d="M 216.835938 184.066406 L 218.195312 187.726562 C 217.6875 188.03125 217.171875 188.328125 216.652344 188.617188 L 214.128906 185.589844 C 212.28125 183.367188 209.328125 182.566406 206.601562 183.558594 C 203.878906 184.546875 202.125 187.054688 202.132812 189.957031 L 202.152344 193.882812 C 201.570312 193.996094 200.984375 194.101562 200.398438 194.1875 L 199.085938 190.519531 C 198.105469 187.792969 195.605469 186.03125 192.699219 186.03125 C 189.792969 186.03125 187.289062 187.792969 186.3125 190.519531 L 185 194.1875 C 184.414062 194.101562 183.820312 193.996094 183.234375 193.882812 L 183.253906 189.945312 C 183.273438 187.054688 181.519531 184.546875 178.792969 183.558594 C 176.070312 182.566406 173.109375 183.359375 171.257812 185.589844 L 168.746094 188.617188 C 168.226562 188.328125 167.710938 188.03125 167.203125 187.726562 L 168.554688 184.066406 C 169.570312 181.347656 168.785156 178.390625 166.558594 176.53125 C 164.335938 174.664062 161.285156 174.40625 158.78125 175.863281 L 155.40625 177.835938 C 155.003906 177.375 154.609375 176.925781 154.238281 176.464844 L 156.777344 173.46875 C 158.65625 171.257812 158.925781 168.210938 157.476562 165.703125 C 156.03125 163.195312 153.25 161.910156 150.390625 162.429688 L 146.527344 163.136719 C 146.316406 162.589844 146.113281 162.035156 145.921875 161.480469 L 149.335938 159.535156 C 151.847656 158.101562 153.152344 155.332031 152.65625 152.480469 C 152.15625 149.625 149.980469 147.472656 147.121094 146.984375 L 143.246094 146.3125 C 143.238281 146.015625 143.238281 145.710938 143.238281 145.414062 C 143.238281 145.117188 143.238281 144.8125 143.246094 144.515625 L 147.121094 143.84375 C 149.980469 143.355469 152.15625 141.199219 152.65625 138.347656 C 153.164062 135.496094 151.859375 132.726562 149.335938 131.289062 L 145.921875 129.347656 C 146.113281 128.792969 146.316406 128.238281 146.527344 127.691406 L 150.390625 128.390625 C 153.25 128.917969 156.03125 127.625 157.476562 125.125 C 158.925781 122.617188 158.65625 119.570312 156.789062 117.359375 L 154.246094 114.363281 C 154.621094 113.902344 155.003906 113.441406 155.40625 112.992188 L 158.78125 114.957031 C 161.285156 116.421875 164.34375 116.164062 166.558594 114.296875 C 168.785156 112.4375 169.570312 109.480469 168.5625 106.761719 L 167.203125 103.101562 C 167.710938 102.796875 168.226562 102.5 168.746094 102.210938 L 171.265625 105.238281 C 173.117188 107.457031 176.070312 108.253906 178.792969 107.265625 C 181.519531 106.28125 183.273438 103.773438 183.261719 100.871094 L 183.246094 96.945312 C 183.828125 96.832031 184.414062 96.726562 185 96.640625 L 186.3125 100.304688 C 187.289062 103.035156 189.792969 104.796875 192.699219 104.796875 C 195.605469 104.796875 198.105469 103.035156 199.085938 100.304688 L 200.398438 96.640625 C 200.984375 96.726562 201.578125 96.832031 202.164062 96.945312 L 202.144531 100.878906 C 202.125 103.773438 203.878906 106.28125 206.601562 107.265625 C 209.328125 108.253906 212.28125 107.457031 214.140625 105.238281 L 216.652344 102.210938 C 217.171875 102.5 217.6875 102.796875 218.195312 103.101562 L 216.84375 106.761719 C 215.828125 109.480469 216.613281 112.4375 218.839844 114.296875 C 221.0625 116.164062 224.113281 116.421875 226.617188 114.964844 L 229.992188 112.992188 C 230.394531 113.453125 230.785156 113.902344 231.160156 114.363281 L 228.621094 117.359375 C 226.742188 119.570312 226.472656 122.617188 227.921875 125.125 C 229.367188 127.632812 232.148438 128.917969 235.007812 128.398438 L 238.871094 127.691406 C 239.082031 128.238281 239.28125 128.792969 239.476562 129.347656 L 236.0625 131.289062 C 233.546875 132.726562 232.246094 135.496094 232.742188 138.347656 C 233.242188 141.199219 235.417969 143.355469 238.277344 143.84375 L 242.148438 144.515625 C 242.160156 144.8125 242.160156 145.117188 242.160156 145.414062 C 242.160156 145.710938 242.160156 146.015625 242.148438 146.3125 L 238.277344 146.984375 C 235.417969 147.472656 233.242188 149.625 232.742188 152.480469 C 232.234375 155.332031 233.539062 158.101562 236.0625 159.535156 L 239.476562 161.480469 C 239.28125 162.035156 239.082031 162.589844 238.871094 163.136719 L 235.007812 162.429688 C 232.847656 162.046875 230.730469 162.667969 229.15625 164.132812 C 228.476562 164.785156 227.976562 165.558594 227.601562 166.402344 L 224.792969 163.148438 C 224.84375 162.957031 224.910156 162.761719 224.910156 162.570312 C 224.910156 161.929688 224.660156 161.296875 224.191406 160.828125 C 223.679688 160.320312 222.953125 160.128906 222.242188 160.1875 L 219.664062 157.199219 C 221.304688 153.476562 222.15625 149.523438 222.15625 145.414062 C 222.15625 129.195312 208.941406 116 192.699219 116 C 176.453125 116 163.242188 129.195312 163.242188 145.414062 C 163.242188 161.632812 176.453125 174.828125 192.699219 174.828125 C 196.8125 174.828125 200.773438 173.976562 204.503906 172.339844 L 216.738281 182.871094 C 216.691406 183.261719 216.691406 183.664062 216.835938 184.066406 Z M 238.84375 194.964844 C 237.894531 194.007812 237.894531 192.445312 238.84375 191.5 C 239.800781 190.539062 241.363281 190.539062 242.324219 191.488281 C 243.273438 192.445312 243.273438 194.007812 242.324219 194.964844 C 241.363281 195.910156 239.800781 195.910156 238.84375 194.964844 Z M 200.0625 168.519531 L 200.304688 168.71875 C 200.226562 168.746094 200.140625 168.757812 200.0625 168.785156 Z M 190.246094 160.0625 L 195.152344 164.296875 L 195.152344 169.800781 C 194.339844 169.878906 193.523438 169.925781 192.699219 169.925781 C 191.875 169.925781 191.050781 169.878906 190.246094 169.800781 Z M 179.964844 152.765625 C 181.257812 154.988281 183.109375 156.835938 185.335938 158.128906 L 185.335938 168.796875 C 177.710938 166.390625 171.6875 160.378906 169.28125 152.765625 Z M 185.335938 132.699219 C 183.109375 133.992188 181.257812 135.839844 179.964844 138.058594 L 169.28125 138.058594 C 171.6875 130.449219 177.710938 124.433594 185.335938 122.03125 Z M 195.152344 130.925781 C 194.347656 130.792969 193.535156 130.707031 192.699219 130.707031 C 191.863281 130.707031 191.050781 130.792969 190.246094 130.925781 L 190.246094 121.027344 C 191.050781 120.949219 191.875 120.902344 192.699219 120.902344 C 193.523438 120.902344 194.347656 120.949219 195.152344 121.027344 Z M 205.433594 138.058594 C 204.140625 135.839844 202.289062 133.992188 200.0625 132.699219 L 200.0625 122.03125 C 207.6875 124.433594 213.707031 130.449219 216.117188 138.058594 Z M 215.835938 152.765625 L 216.097656 152.765625 C 216.078125 152.84375 216.058594 152.921875 216.039062 152.996094 Z M 207.371094 142.960938 L 217.121094 142.960938 C 217.199219 143.765625 217.246094 144.589844 217.246094 145.414062 C 217.246094 146.238281 217.199219 147.050781 217.113281 147.863281 L 211.597656 147.863281 Z M 168.152344 145.414062 C 168.152344 144.570312 168.199219 143.738281 168.277344 142.914062 C 168.351562 142.925781 168.410156 142.960938 168.488281 142.960938 L 178.191406 142.960938 C 178.054688 143.765625 177.96875 144.582031 177.96875 145.414062 C 177.96875 146.246094 178.054688 147.0625 178.191406 147.863281 L 168.277344 147.863281 C 168.199219 147.0625 168.152344 146.238281 168.152344 145.414062 Z M 192.699219 155.21875 C 187.28125 155.21875 182.878906 150.824219 182.878906 145.414062 C 182.878906 140.003906 187.28125 135.609375 192.699219 135.609375 C 198.117188 135.609375 202.519531 140.003906 202.519531 145.414062 C 202.519531 150.824219 198.117188 155.21875 192.699219 155.21875 Z M 197.0625 159.460938 C 201.683594 158.035156 205.328125 154.386719 206.765625 149.769531 L 238.285156 186.269531 C 237.222656 186.625 236.214844 187.1875 235.371094 188.03125 C 234.535156 188.863281 233.96875 189.871094 233.617188 190.933594 Z M 240.308594 200.679688 C 241.824219 200.679688 243.339844 200.238281 244.632812 199.367188 C 245.046875 199.101562 245.429688 198.785156 245.792969 198.429688 C 245.84375 198.382812 245.871094 198.324219 245.917969 198.277344 C 248.632812 195.421875 248.765625 190.914062 246.175781 187.917969 L 231.515625 170.929688 C 231.8125 170.460938 231.984375 169.917969 231.917969 169.332031 C 231.84375 168.746094 232.082031 168.125 232.53125 167.703125 C 232.828125 167.417969 233.347656 167.109375 234.125 167.253906 L 239.953125 168.316406 C 241.078125 168.519531 242.1875 167.925781 242.648438 166.871094 C 243.464844 164.984375 244.171875 163.023438 244.769531 161.039062 C 245.105469 159.949219 244.632812 158.769531 243.636719 158.207031 L 238.496094 155.277344 C 237.433594 154.671875 237.527344 153.640625 237.578125 153.332031 C 237.632812 153.027344 237.902344 152.019531 239.101562 151.808594 L 244.941406 150.8125 C 246.0625 150.621094 246.90625 149.675781 246.972656 148.535156 C 247.03125 147.5 247.070312 146.457031 247.070312 145.414062 C 247.070312 144.371094 247.03125 143.328125 246.972656 142.292969 C 246.90625 141.152344 246.0625 140.207031 244.941406 140.011719 L 239.101562 139.019531 C 237.902344 138.808594 237.632812 137.800781 237.578125 137.496094 C 237.527344 137.1875 237.433594 136.15625 238.496094 135.550781 L 243.636719 132.621094 C 244.632812 132.058594 245.105469 130.890625 244.769531 129.789062 C 244.171875 127.796875 243.453125 125.832031 242.648438 123.957031 C 242.199219 122.902344 241.078125 122.308594 239.953125 122.511719 L 234.125 123.574219 C 232.933594 123.804688 232.332031 122.941406 232.167969 122.671875 C 232.015625 122.40625 231.574219 121.457031 232.359375 120.527344 L 236.195312 116.007812 C 236.933594 115.136719 236.972656 113.875 236.292969 112.964844 C 235.09375 111.367188 233.742188 109.757812 232.265625 108.195312 C 231.476562 107.363281 230.222656 107.179688 229.234375 107.753906 L 224.140625 110.722656 C 223.085938 111.347656 222.234375 110.742188 221.992188 110.542969 C 221.765625 110.351562 221.015625 109.613281 221.449219 108.464844 L 223.488281 102.9375 C 223.890625 101.867188 223.5 100.671875 222.539062 100.039062 C 220.8125 98.910156 219.003906 97.863281 217.152344 96.925781 C 216.125 96.410156 214.878906 96.667969 214.148438 97.546875 L 210.363281 102.105469 C 209.585938 103.042969 208.570312 102.777344 208.28125 102.660156 C 207.992188 102.554688 207.042969 102.117188 207.054688 100.898438 L 207.074219 94.972656 C 207.082031 93.832031 206.296875 92.839844 205.183594 92.578125 C 203.171875 92.109375 201.097656 91.746094 199.046875 91.507812 C 197.894531 91.355469 196.832031 92.042969 196.449219 93.117188 L 194.464844 98.648438 C 194.050781 99.808594 193.007812 99.894531 192.699219 99.894531 C 192.390625 99.894531 191.347656 99.808594 190.933594 98.648438 L 188.949219 93.117188 C 188.566406 92.042969 187.5 91.363281 186.359375 91.507812 C 184.308594 91.738281 182.238281 92.101562 180.214844 92.578125 C 179.101562 92.839844 178.316406 93.832031 178.324219 94.972656 L 178.355469 100.898438 C 178.355469 102.117188 177.40625 102.554688 177.117188 102.660156 C 176.828125 102.765625 175.820312 103.035156 175.035156 102.097656 L 171.25 97.546875 C 170.519531 96.667969 169.28125 96.410156 168.257812 96.925781 C 166.386719 97.863281 164.574219 98.917969 162.859375 100.039062 C 161.910156 100.671875 161.503906 101.867188 161.910156 102.9375 L 163.960938 108.464844 C 164.382812 109.613281 163.644531 110.351562 163.402344 110.542969 C 163.164062 110.742188 162.3125 111.347656 161.257812 110.722656 L 156.164062 107.753906 C 155.175781 107.179688 153.929688 107.363281 153.144531 108.1875 C 151.667969 109.757812 150.316406 111.355469 149.117188 112.953125 C 148.425781 113.875 148.464844 115.136719 149.203125 116.007812 L 153.039062 120.527344 C 153.824219 121.457031 153.382812 122.40625 153.230469 122.664062 C 153.078125 122.933594 152.480469 123.792969 151.273438 123.574219 L 145.445312 122.511719 C 144.332031 122.320312 143.210938 122.902344 142.75 123.957031 C 141.933594 125.84375 141.222656 127.804688 140.628906 129.789062 C 140.292969 130.878906 140.765625 132.058594 141.761719 132.621094 L 146.902344 135.550781 C 147.964844 136.15625 147.871094 137.1875 147.820312 137.496094 C 147.765625 137.800781 147.496094 138.808594 146.296875 139.019531 L 140.457031 140.011719 C 139.335938 140.207031 138.492188 141.152344 138.425781 142.292969 C 138.367188 143.328125 138.328125 144.371094 138.328125 145.414062 C 138.328125 146.457031 138.367188 147.5 138.425781 148.535156 C 138.492188 149.675781 139.335938 150.621094 140.457031 150.8125 L 146.296875 151.808594 C 147.496094 152.019531 147.765625 153.027344 147.820312 153.332031 C 147.871094 153.640625 147.964844 154.671875 146.902344 155.277344 L 141.761719 158.207031 C 140.765625 158.769531 140.292969 159.9375 140.628906 161.039062 C 141.222656 163.03125 141.945312 164.996094 142.75 166.871094 C 143.199219 167.914062 144.3125 168.507812 145.445312 168.316406 L 151.273438 167.253906 C 152.472656 167.035156 153.078125 167.886719 153.230469 168.15625 C 153.382812 168.421875 153.824219 169.371094 153.039062 170.300781 L 149.203125 174.820312 C 148.464844 175.691406 148.425781 176.953125 149.105469 177.863281 C 150.304688 179.460938 151.65625 181.070312 153.132812 182.632812 C 153.921875 183.464844 155.175781 183.648438 156.164062 183.070312 L 161.257812 180.105469 C 162.3125 179.480469 163.164062 180.085938 163.402344 180.285156 C 163.632812 180.476562 164.382812 181.214844 163.949219 182.363281 L 161.910156 187.886719 C 161.503906 188.960938 161.898438 190.15625 162.859375 190.789062 C 164.574219 191.917969 166.386719 192.964844 168.246094 193.902344 C 169.273438 194.417969 170.511719 194.160156 171.25 193.277344 L 175.035156 188.722656 C 175.8125 187.792969 176.828125 188.0625 177.117188 188.164062 C 177.40625 188.269531 178.355469 188.710938 178.34375 189.929688 L 178.324219 195.855469 C 178.316406 196.992188 179.101562 197.988281 180.214844 198.25 C 182.226562 198.71875 184.300781 199.082031 186.351562 199.320312 C 186.457031 199.332031 186.542969 199.339844 186.640625 199.339844 C 187.664062 199.339844 188.59375 198.699219 188.949219 197.710938 L 190.933594 192.179688 C 191.347656 191.019531 192.390625 190.933594 192.699219 190.933594 C 193.007812 190.933594 194.050781 191.019531 194.464844 192.179688 L 196.449219 197.710938 C 196.832031 198.785156 197.90625 199.464844 199.039062 199.320312 C 201.089844 199.089844 203.160156 198.726562 205.183594 198.25 C 206.296875 197.988281 207.082031 196.992188 207.074219 195.855469 L 207.042969 189.929688 C 207.042969 188.710938 207.992188 188.269531 208.28125 188.164062 C 208.570312 188.0625 209.574219 187.78125 210.363281 188.730469 L 214.148438 193.277344 C 214.878906 194.160156 216.117188 194.417969 217.140625 193.902344 C 219.011719 192.964844 220.824219 191.910156 222.539062 190.789062 C 223.222656 190.339844 223.605469 189.582031 223.625 188.808594 L 235.265625 198.8125 C 236.714844 200.058594 238.515625 200.679688 240.308594 200.679688 " fill-opacity="1" fill-rule="nonzero"/></g><path fill="#f8f4eb" d="M 191.769531 113.347656 C 192.054688 113.472656 192.382812 113.546875 192.699219 113.546875 C 193.339844 113.546875 193.972656 113.28125 194.445312 112.839844 C 194.886719 112.371094 195.152344 111.738281 195.152344 111.097656 C 195.152344 110.457031 194.886719 109.824219 194.445312 109.355469 C 193.753906 108.675781 192.671875 108.472656 191.769531 108.835938 C 191.441406 108.960938 191.175781 109.132812 190.953125 109.355469 C 190.511719 109.824219 190.246094 110.457031 190.246094 111.097656 C 190.246094 111.738281 190.511719 112.371094 190.953125 112.839844 C 191.175781 113.058594 191.441406 113.234375 191.769531 113.347656 " fill-opacity="1" fill-rule="nonzero"/><path fill="#f8f4eb" d="M 162.945312 130.707031 C 163.585938 130.707031 164.21875 130.4375 164.660156 130 C 165.128906 129.527344 165.398438 128.898438 165.398438 128.253906 C 165.398438 127.613281 165.128906 126.980469 164.660156 126.511719 C 163.757812 125.601562 162.109375 125.601562 161.199219 126.511719 C 160.738281 126.980469 160.488281 127.613281 160.488281 128.253906 C 160.488281 128.898438 160.738281 129.527344 161.199219 130 C 161.667969 130.4375 162.28125 130.707031 162.945312 130.707031 " fill-opacity="1" fill-rule="nonzero"/><path fill="#f8f4eb" d="M 161.199219 160.828125 C 160.738281 161.296875 160.488281 161.929688 160.488281 162.570312 C 160.488281 163.214844 160.738281 163.84375 161.199219 164.316406 C 161.640625 164.753906 162.28125 165.023438 162.925781 165.023438 C 163.585938 165.023438 164.21875 164.753906 164.660156 164.316406 C 165.128906 163.84375 165.398438 163.214844 165.398438 162.570312 C 165.398438 161.929688 165.128906 161.296875 164.660156 160.828125 C 163.757812 159.917969 162.109375 159.917969 161.199219 160.828125 " fill-opacity="1" fill-rule="nonzero"/><path fill="#f8f4eb" d="M 194.953125 178.800781 C 194.90625 178.648438 194.835938 178.503906 194.730469 178.378906 C 194.636719 178.238281 194.539062 178.113281 194.445312 177.988281 C 193.535156 177.078125 191.882812 177.078125 190.953125 177.988281 C 190.511719 178.457031 190.246094 179.089844 190.246094 179.730469 C 190.246094 180.371094 190.511719 181.003906 190.953125 181.472656 C 191.421875 181.914062 192.054688 182.183594 192.699219 182.183594 C 193.339844 182.183594 193.972656 181.914062 194.445312 181.472656 C 194.539062 181.347656 194.636719 181.222656 194.730469 181.101562 C 194.835938 180.957031 194.90625 180.8125 194.953125 180.660156 C 195.027344 180.515625 195.078125 180.371094 195.105469 180.21875 C 195.125 180.046875 195.152344 179.875 195.152344 179.730469 C 195.152344 179.558594 195.125 179.414062 195.105469 179.242188 C 195.078125 179.089844 195.027344 178.945312 194.953125 178.800781 " fill-opacity="1" fill-rule="nonzero"/><path fill="#f8f4eb" d="M 222.453125 130.707031 C 223.117188 130.707031 223.730469 130.4375 224.191406 130 C 224.660156 129.527344 224.929688 128.898438 224.929688 128.253906 C 224.929688 127.613281 224.660156 126.980469 224.191406 126.511719 C 223.289062 125.601562 221.640625 125.601562 220.726562 126.511719 C 220.269531 126.980469 220.019531 127.613281 220.019531 128.253906 C 220.019531 128.898438 220.269531 129.527344 220.726562 130 C 221.167969 130.4375 221.8125 130.707031 222.453125 130.707031 " fill-opacity="1" fill-rule="nonzero"/><g fill="#f8f4eb" fill-opacity="1"><g transform="translate(87.255717, 243.11619)"><g><path d="M 1.175781 -1.148438 C 3.601562 0.101562 5.824219 0.226562 6.824219 0.148438 C 10.175781 -0.0234375 12.222656 -2.300781 12.222656 -5.273438 C 12.222656 -8.125 9.824219 -9.722656 7.050781 -10.75 C 6.023438 -11.097656 5.148438 -11.550781 5.050781 -12.546875 C 4.972656 -13.546875 5.550781 -14.472656 6.824219 -14.546875 C 7.375 -14.574219 8.5 -14.597656 10.472656 -13.796875 L 10.925781 -17.25 C 8.625 -18.046875 7.398438 -18.046875 6.472656 -18 C 3.5 -17.847656 1.425781 -15.546875 1.425781 -12.546875 C 1.425781 -9.550781 3.925781 -8.125 6.722656 -7.097656 C 7.722656 -6.75 8.5 -6.300781 8.574219 -5.273438 C 8.675781 -4.300781 7.773438 -3.550781 6.722656 -3.476562 C 5.898438 -3.398438 3.675781 -3.449219 1.625 -4.898438 Z M 1.175781 -1.148438 "/></g></g></g><g fill="#f8f4eb" fill-opacity="1"><g transform="translate(100.47862, 243.11619)"><g><path d="M 5.574219 0 L 5.574219 -6.824219 L 9.023438 -6.824219 C 15.949219 -6.824219 15.972656 -17.847656 9.023438 -17.847656 L 2 -17.847656 L 2 0 Z M 5.574219 -10.300781 L 5.574219 -14.296875 L 8.722656 -14.296875 C 11.125 -14.296875 11.125 -10.300781 8.722656 -10.300781 Z M 5.574219 -10.300781 "/></g></g></g><g fill="#f8f4eb" fill-opacity="1"><g transform="translate(115.551232, 243.11619)"><g><path d="M 5.574219 0 L 5.574219 -17.875 L 2 -17.875 L 2 0 Z M 5.574219 0 "/></g></g></g><g fill="#f8f4eb" fill-opacity="1"><g transform="translate(123.150028, 243.11619)"><g><path d="M 5.574219 -9.722656 L 14.625 0.375 L 15.574219 0.375 L 15.574219 -17.847656 L 11.972656 -17.847656 L 11.972656 -7.75 L 2.949219 -18.25 L 2 -18.25 L 2 0 L 5.574219 0 Z M 5.574219 -9.722656 "/></g></g></g><g fill="#f8f4eb" fill-opacity="1"><g transform="translate(140.747241, 243.11619)"><g/></g></g><g fill="#f8f4eb" fill-opacity="1"><g transform="translate(147.846114, 243.11619)"><g><path d="M 1.175781 -1.148438 C 3.601562 0.101562 5.824219 0.226562 6.824219 0.148438 C 10.175781 -0.0234375 12.222656 -2.300781 12.222656 -5.273438 C 12.222656 -8.125 9.824219 -9.722656 7.050781 -10.75 C 6.023438 -11.097656 5.148438 -11.550781 5.050781 -12.546875 C 4.972656 -13.546875 5.550781 -14.472656 6.824219 -14.546875 C 7.375 -14.574219 8.5 -14.597656 10.472656 -13.796875 L 10.925781 -17.25 C 8.625 -18.046875 7.398438 -18.046875 6.472656 -18 C 3.5 -17.847656 1.425781 -15.546875 1.425781 -12.546875 C 1.425781 -9.550781 3.925781 -8.125 6.722656 -7.097656 C 7.722656 -6.75 8.5 -6.300781 8.574219 -5.273438 C 8.675781 -4.300781 7.773438 -3.550781 6.722656 -3.476562 C 5.898438 -3.398438 3.675781 -3.449219 1.625 -4.898438 Z M 1.175781 -1.148438 "/></g></g></g><g fill="#f8f4eb" fill-opacity="1"><g transform="translate(161.069017, 243.11619)"><g><path d="M 10.597656 0.25 C 22.898438 0.25 22.898438 -18.171875 10.597656 -18.171875 C -1.699219 -18.171875 -1.699219 0.25 10.597656 0.25 Z M 10.597656 -3.449219 C 3.449219 -3.449219 3.449219 -14.5 10.597656 -14.5 C 17.75 -14.5 17.75 -3.449219 10.597656 -3.449219 Z M 10.597656 -3.449219 "/></g></g></g><g fill="#f8f4eb" fill-opacity="1"><g transform="translate(182.240666, 243.11619)"><g><path d="M 2 -17.875 L 2 0 L 11.25 0 L 11.25 -3.574219 L 5.574219 -3.574219 L 5.574219 -17.875 Z M 2 -17.875 "/></g></g></g><g fill="#f8f4eb" fill-opacity="1"><g transform="translate(194.563709, 243.11619)"><g><path d="M 14.824219 -6.222656 L 14.824219 -17.875 L 11.273438 -17.875 L 11.273438 -6.25 C 11.273438 -2.5 5.472656 -2.5 5.472656 -6.25 L 5.472656 -17.875 L 1.898438 -17.875 L 1.898438 -6.222656 C 1.898438 2.273438 14.824219 2.273438 14.824219 -6.222656 Z M 14.824219 -6.222656 "/></g></g></g><g fill="#f8f4eb" fill-opacity="1"><g transform="translate(211.336055, 243.11619)"><g><path d="M 8.523438 0 L 8.523438 -14.296875 L 12.972656 -14.296875 L 12.972656 -17.847656 L 0.5 -17.847656 L 0.5 -14.296875 L 4.949219 -14.296875 L 4.949219 0 Z M 8.523438 0 "/></g></g></g><g fill="#f8f4eb" fill-opacity="1"><g transform="translate(225.008894, 243.11619)"><g><path d="M 5.574219 0 L 5.574219 -17.875 L 2 -17.875 L 2 0 Z M 5.574219 0 "/></g></g></g><g fill="#f8f4eb" fill-opacity="1"><g transform="translate(232.60769, 243.11619)"><g><path d="M 10.597656 0.25 C 22.898438 0.25 22.898438 -18.171875 10.597656 -18.171875 C -1.699219 -18.171875 -1.699219 0.25 10.597656 0.25 Z M 10.597656 -3.449219 C 3.449219 -3.449219 3.449219 -14.5 10.597656 -14.5 C 17.75 -14.5 17.75 -3.449219 10.597656 -3.449219 Z M 10.597656 -3.449219 "/></g></g></g><g fill="#f8f4eb" fill-opacity="1"><g transform="translate(253.779339, 243.11619)"><g><path d="M 5.574219 -9.722656 L 14.625 0.375 L 15.574219 0.375 L 15.574219 -17.847656 L 11.972656 -17.847656 L 11.972656 -7.75 L 2.949219 -18.25 L 2 -18.25 L 2 0 L 5.574219 0 Z M 5.574219 -9.722656 "/></g></g></g><g fill="#f8f4eb" fill-opacity="1"><g transform="translate(271.376552, 243.11619)"><g><path d="M 1.175781 -1.148438 C 3.601562 0.101562 5.824219 0.226562 6.824219 0.148438 C 10.175781 -0.0234375 12.222656 -2.300781 12.222656 -5.273438 C 12.222656 -8.125 9.824219 -9.722656 7.050781 -10.75 C 6.023438 -11.097656 5.148438 -11.550781 5.050781 -12.546875 C 4.972656 -13.546875 5.550781 -14.472656 6.824219 -14.546875 C 7.375 -14.574219 8.5 -14.597656 10.472656 -13.796875 L 10.925781 -17.25 C 8.625 -18.046875 7.398438 -18.046875 6.472656 -18 C 3.5 -17.847656 1.425781 -15.546875 1.425781 -12.546875 C 1.425781 -9.550781 3.925781 -8.125 6.722656 -7.097656 C 7.722656 -6.75 8.5 -6.300781 8.574219 -5.273438 C 8.675781 -4.300781 7.773438 -3.550781 6.722656 -3.476562 C 5.898438 -3.398438 3.675781 -3.449219 1.625 -4.898438 Z M 1.175781 -1.148438 "/></g></g></g><g fill="#f8f4eb" fill-opacity="1"><g transform="translate(103.918944, 281.469649)"><g><path d="M 4.96875 0 L 2.0625 -7.59375 L 2.015625 -7.59375 C 2.066406 -6.988281 2.09375 -6.273438 2.09375 -5.453125 L 2.09375 0 L 1.171875 0 L 1.171875 -8.5625 L 2.671875 -8.5625 L 5.390625 -1.5 L 5.4375 -1.5 L 8.171875 -8.5625 L 9.65625 -8.5625 L 9.65625 0 L 8.671875 0 L 8.671875 -5.515625 C 8.671875 -6.148438 8.695312 -6.835938 8.75 -7.578125 L 8.703125 -7.578125 L 5.765625 0 Z M 4.96875 0 "/></g></g></g><g fill="#f8f4eb" fill-opacity="1"><g transform="translate(116.252927, 281.469649)"><g><path d="M 4.984375 0 L 4.78125 -0.921875 L 4.734375 -0.921875 C 4.421875 -0.515625 4.101562 -0.238281 3.78125 -0.09375 C 3.46875 0.0507812 3.070312 0.125 2.59375 0.125 C 1.957031 0.125 1.457031 -0.0390625 1.09375 -0.375 C 0.726562 -0.707031 0.546875 -1.175781 0.546875 -1.78125 C 0.546875 -3.070312 1.582031 -3.75 3.65625 -3.8125 L 4.75 -3.84375 L 4.75 -4.25 C 4.75 -4.75 4.640625 -5.117188 4.421875 -5.359375 C 4.210938 -5.597656 3.867188 -5.71875 3.390625 -5.71875 C 2.847656 -5.71875 2.242188 -5.554688 1.578125 -5.234375 L 1.265625 -5.984375 C 1.585938 -6.148438 1.9375 -6.28125 2.3125 -6.375 C 2.6875 -6.476562 3.066406 -6.53125 3.453125 -6.53125 C 4.210938 -6.53125 4.773438 -6.359375 5.140625 -6.015625 C 5.515625 -5.679688 5.703125 -5.140625 5.703125 -4.390625 L 5.703125 0 Z M 2.78125 -0.6875 C 3.382812 -0.6875 3.859375 -0.851562 4.203125 -1.1875 C 4.554688 -1.519531 4.734375 -1.984375 4.734375 -2.578125 L 4.734375 -3.15625 L 3.75 -3.125 C 2.976562 -3.09375 2.421875 -2.96875 2.078125 -2.75 C 1.742188 -2.539062 1.578125 -2.210938 1.578125 -1.765625 C 1.578125 -1.410156 1.679688 -1.140625 1.890625 -0.953125 C 2.097656 -0.773438 2.394531 -0.6875 2.78125 -0.6875 Z M 2.78125 -0.6875 "/></g></g></g><g fill="#f8f4eb" fill-opacity="1"><g transform="translate(124.426755, 281.469649)"><g><path d="M 3.96875 -6.546875 C 4.25 -6.546875 4.503906 -6.519531 4.734375 -6.46875 L 4.59375 -5.5625 C 4.332031 -5.625 4.097656 -5.65625 3.890625 -5.65625 C 3.367188 -5.65625 2.921875 -5.441406 2.546875 -5.015625 C 2.179688 -4.597656 2 -4.078125 2 -3.453125 L 2 0 L 1.03125 0 L 1.03125 -6.421875 L 1.828125 -6.421875 L 1.953125 -5.234375 L 2 -5.234375 C 2.226562 -5.648438 2.507812 -5.972656 2.84375 -6.203125 C 3.1875 -6.429688 3.5625 -6.546875 3.96875 -6.546875 Z M 3.96875 -6.546875 "/></g></g></g><g fill="#f8f4eb" fill-opacity="1"><g transform="translate(130.825192, 281.469649)"><g><path d="M 3.59375 0.125 C 2.664062 0.125 1.945312 -0.160156 1.4375 -0.734375 C 0.925781 -1.304688 0.671875 -2.117188 0.671875 -3.171875 C 0.671875 -4.242188 0.929688 -5.070312 1.453125 -5.65625 C 1.972656 -6.25 2.707031 -6.546875 3.65625 -6.546875 C 3.96875 -6.546875 4.273438 -6.507812 4.578125 -6.4375 C 4.890625 -6.375 5.132812 -6.296875 5.3125 -6.203125 L 5.015625 -5.375 C 4.796875 -5.46875 4.5625 -5.539062 4.3125 -5.59375 C 4.0625 -5.644531 3.835938 -5.671875 3.640625 -5.671875 C 2.335938 -5.671875 1.6875 -4.84375 1.6875 -3.1875 C 1.6875 -2.394531 1.84375 -1.785156 2.15625 -1.359375 C 2.476562 -0.941406 2.953125 -0.734375 3.578125 -0.734375 C 4.109375 -0.734375 4.65625 -0.847656 5.21875 -1.078125 L 5.21875 -0.21875 C 4.789062 0.0078125 4.25 0.125 3.59375 0.125 Z M 3.59375 0.125 "/></g></g></g><g fill="#f8f4eb" fill-opacity="1"><g transform="translate(138.038082, 281.469649)"><g><path d="M 5.421875 0 L 5.421875 -4.15625 C 5.421875 -4.675781 5.300781 -5.066406 5.0625 -5.328125 C 4.832031 -5.585938 4.460938 -5.71875 3.953125 -5.71875 C 3.273438 -5.71875 2.78125 -5.53125 2.46875 -5.15625 C 2.15625 -4.789062 2 -4.191406 2 -3.359375 L 2 0 L 1.03125 0 L 1.03125 -9.125 L 2 -9.125 L 2 -6.359375 C 2 -6.023438 1.984375 -5.75 1.953125 -5.53125 L 2.015625 -5.53125 C 2.203125 -5.84375 2.472656 -6.085938 2.828125 -6.265625 C 3.179688 -6.441406 3.585938 -6.53125 4.046875 -6.53125 C 4.828125 -6.53125 5.414062 -6.34375 5.8125 -5.96875 C 6.207031 -5.59375 6.40625 -5 6.40625 -4.1875 L 6.40625 0 Z M 5.421875 0 "/></g></g></g><g fill="#f8f4eb" fill-opacity="1"><g transform="translate(146.903316, 281.469649)"><g><path d="M 4.984375 0 L 4.78125 -0.921875 L 4.734375 -0.921875 C 4.421875 -0.515625 4.101562 -0.238281 3.78125 -0.09375 C 3.46875 0.0507812 3.070312 0.125 2.59375 0.125 C 1.957031 0.125 1.457031 -0.0390625 1.09375 -0.375 C 0.726562 -0.707031 0.546875 -1.175781 0.546875 -1.78125 C 0.546875 -3.070312 1.582031 -3.75 3.65625 -3.8125 L 4.75 -3.84375 L 4.75 -4.25 C 4.75 -4.75 4.640625 -5.117188 4.421875 -5.359375 C 4.210938 -5.597656 3.867188 -5.71875 3.390625 -5.71875 C 2.847656 -5.71875 2.242188 -5.554688 1.578125 -5.234375 L 1.265625 -5.984375 C 1.585938 -6.148438 1.9375 -6.28125 2.3125 -6.375 C 2.6875 -6.476562 3.066406 -6.53125 3.453125 -6.53125 C 4.210938 -6.53125 4.773438 -6.359375 5.140625 -6.015625 C 5.515625 -5.679688 5.703125 -5.140625 5.703125 -4.390625 L 5.703125 0 Z M 2.78125 -0.6875 C 3.382812 -0.6875 3.859375 -0.851562 4.203125 -1.1875 C 4.554688 -1.519531 4.734375 -1.984375 4.734375 -2.578125 L 4.734375 -3.15625 L 3.75 -3.125 C 2.976562 -3.09375 2.421875 -2.96875 2.078125 -2.75 C 1.742188 -2.539062 1.578125 -2.210938 1.578125 -1.765625 C 1.578125 -1.410156 1.679688 -1.140625 1.890625 -0.953125 C 2.097656 -0.773438 2.394531 -0.6875 2.78125 -0.6875 Z M 2.78125 -0.6875 "/></g></g></g><g fill="#f8f4eb" fill-opacity="1"><g transform="translate(155.077144, 281.469649)"><g><path d="M 5.421875 0 L 5.421875 -4.15625 C 5.421875 -4.675781 5.300781 -5.066406 5.0625 -5.328125 C 4.832031 -5.585938 4.460938 -5.71875 3.953125 -5.71875 C 3.273438 -5.71875 2.78125 -5.535156 2.46875 -5.171875 C 2.15625 -4.804688 2 -4.207031 2 -3.375 L 2 0 L 1.03125 0 L 1.03125 -6.421875 L 1.828125 -6.421875 L 1.984375 -5.546875 L 2.03125 -5.546875 C 2.226562 -5.859375 2.503906 -6.101562 2.859375 -6.28125 C 3.222656 -6.457031 3.625 -6.546875 4.0625 -6.546875 C 4.84375 -6.546875 5.425781 -6.359375 5.8125 -5.984375 C 6.207031 -5.609375 6.40625 -5.007812 6.40625 -4.1875 L 6.40625 0 Z M 5.421875 0 "/></g></g></g><g fill="#f8f4eb" fill-opacity="1"><g transform="translate(163.942377, 281.469649)"><g><path d="M 5.40625 -0.859375 L 5.34375 -0.859375 C 4.894531 -0.203125 4.222656 0.125 3.328125 0.125 C 2.492188 0.125 1.84375 -0.160156 1.375 -0.734375 C 0.90625 -1.316406 0.671875 -2.132812 0.671875 -3.1875 C 0.671875 -4.25 0.90625 -5.070312 1.375 -5.65625 C 1.84375 -6.25 2.492188 -6.546875 3.328125 -6.546875 C 4.203125 -6.546875 4.875 -6.226562 5.34375 -5.59375 L 5.421875 -5.59375 L 5.375 -6.046875 L 5.34375 -6.5 L 5.34375 -9.125 L 6.328125 -9.125 L 6.328125 0 L 5.53125 0 Z M 3.453125 -0.703125 C 4.117188 -0.703125 4.597656 -0.878906 4.890625 -1.234375 C 5.191406 -1.597656 5.34375 -2.179688 5.34375 -2.984375 L 5.34375 -3.1875 C 5.34375 -4.101562 5.191406 -4.753906 4.890625 -5.140625 C 4.585938 -5.523438 4.109375 -5.71875 3.453125 -5.71875 C 2.878906 -5.71875 2.441406 -5.492188 2.140625 -5.046875 C 1.835938 -4.609375 1.6875 -3.988281 1.6875 -3.1875 C 1.6875 -2.363281 1.832031 -1.742188 2.125 -1.328125 C 2.425781 -0.910156 2.867188 -0.703125 3.453125 -0.703125 Z M 3.453125 -0.703125 "/></g></g></g><g fill="#f8f4eb" fill-opacity="1"><g transform="translate(172.795892, 281.469649)"><g><path d="M 2 0 L 1.03125 0 L 1.03125 -6.421875 L 2 -6.421875 Z M 0.953125 -8.15625 C 0.953125 -8.382812 1.003906 -8.550781 1.109375 -8.65625 C 1.222656 -8.757812 1.363281 -8.8125 1.53125 -8.8125 C 1.6875 -8.8125 1.816406 -8.753906 1.921875 -8.640625 C 2.035156 -8.535156 2.09375 -8.375 2.09375 -8.15625 C 2.09375 -7.9375 2.035156 -7.773438 1.921875 -7.671875 C 1.816406 -7.566406 1.6875 -7.515625 1.53125 -7.515625 C 1.363281 -7.515625 1.222656 -7.566406 1.109375 -7.671875 C 1.003906 -7.773438 0.953125 -7.9375 0.953125 -8.15625 Z M 0.953125 -8.15625 "/></g></g></g><g fill="#f8f4eb" fill-opacity="1"><g transform="translate(177.331048, 281.469649)"><g><path d="M 5.171875 -1.75 C 5.171875 -1.15625 4.945312 -0.691406 4.5 -0.359375 C 4.0625 -0.0351562 3.4375 0.125 2.625 0.125 C 1.78125 0.125 1.117188 -0.0078125 0.640625 -0.28125 L 0.640625 -1.1875 C 0.953125 -1.03125 1.28125 -0.90625 1.625 -0.8125 C 1.976562 -0.726562 2.320312 -0.6875 2.65625 -0.6875 C 3.164062 -0.6875 3.554688 -0.765625 3.828125 -0.921875 C 4.097656 -1.085938 4.234375 -1.335938 4.234375 -1.671875 C 4.234375 -1.921875 4.125 -2.132812 3.90625 -2.3125 C 3.695312 -2.488281 3.273438 -2.695312 2.640625 -2.9375 C 2.046875 -3.164062 1.617188 -3.363281 1.359375 -3.53125 C 1.109375 -3.695312 0.921875 -3.882812 0.796875 -4.09375 C 0.679688 -4.300781 0.625 -4.550781 0.625 -4.84375 C 0.625 -5.363281 0.835938 -5.773438 1.265625 -6.078125 C 1.691406 -6.390625 2.273438 -6.546875 3.015625 -6.546875 C 3.703125 -6.546875 4.378906 -6.40625 5.046875 -6.125 L 4.6875 -5.328125 C 4.050781 -5.585938 3.46875 -5.71875 2.9375 -5.71875 C 2.476562 -5.71875 2.128906 -5.644531 1.890625 -5.5 C 1.660156 -5.363281 1.546875 -5.164062 1.546875 -4.90625 C 1.546875 -4.738281 1.585938 -4.59375 1.671875 -4.46875 C 1.765625 -4.351562 1.90625 -4.238281 2.09375 -4.125 C 2.289062 -4.019531 2.671875 -3.863281 3.234375 -3.65625 C 3.992188 -3.375 4.503906 -3.09375 4.765625 -2.8125 C 5.035156 -2.53125 5.171875 -2.175781 5.171875 -1.75 Z M 5.171875 -1.75 "/></g></g></g><g fill="#f8f4eb" fill-opacity="1"><g transform="translate(184.555657, 281.469649)"><g><path d="M 3.75 0.125 C 2.800781 0.125 2.050781 -0.164062 1.5 -0.75 C 0.945312 -1.332031 0.671875 -2.132812 0.671875 -3.15625 C 0.671875 -4.195312 0.925781 -5.019531 1.4375 -5.625 C 1.945312 -6.238281 2.632812 -6.546875 3.5 -6.546875 C 4.300781 -6.546875 4.9375 -6.28125 5.40625 -5.75 C 5.875 -5.21875 6.109375 -4.519531 6.109375 -3.65625 L 6.109375 -3.03125 L 1.6875 -3.03125 C 1.707031 -2.28125 1.894531 -1.707031 2.25 -1.3125 C 2.613281 -0.925781 3.125 -0.734375 3.78125 -0.734375 C 4.46875 -0.734375 5.148438 -0.878906 5.828125 -1.171875 L 5.828125 -0.296875 C 5.484375 -0.148438 5.15625 -0.046875 4.84375 0.015625 C 4.539062 0.0859375 4.175781 0.125 3.75 0.125 Z M 3.484375 -5.71875 C 2.960938 -5.71875 2.546875 -5.550781 2.234375 -5.21875 C 1.929688 -4.882812 1.753906 -4.421875 1.703125 -3.828125 L 5.0625 -3.828125 C 5.0625 -4.441406 4.925781 -4.910156 4.65625 -5.234375 C 4.382812 -5.554688 3.992188 -5.71875 3.484375 -5.71875 Z M 3.484375 -5.71875 "/></g></g></g><g fill="#f8f4eb" fill-opacity="1"><g transform="translate(192.788079, 281.469649)"><g/></g></g><g fill="#f8f4eb" fill-opacity="1"><g transform="translate(197.405266, 281.469649)"><g><path d="M 3.75 0.125 C 2.800781 0.125 2.050781 -0.164062 1.5 -0.75 C 0.945312 -1.332031 0.671875 -2.132812 0.671875 -3.15625 C 0.671875 -4.195312 0.925781 -5.019531 1.4375 -5.625 C 1.945312 -6.238281 2.632812 -6.546875 3.5 -6.546875 C 4.300781 -6.546875 4.9375 -6.28125 5.40625 -5.75 C 5.875 -5.21875 6.109375 -4.519531 6.109375 -3.65625 L 6.109375 -3.03125 L 1.6875 -3.03125 C 1.707031 -2.28125 1.894531 -1.707031 2.25 -1.3125 C 2.613281 -0.925781 3.125 -0.734375 3.78125 -0.734375 C 4.46875 -0.734375 5.148438 -0.878906 5.828125 -1.171875 L 5.828125 -0.296875 C 5.484375 -0.148438 5.15625 -0.046875 4.84375 0.015625 C 4.539062 0.0859375 4.175781 0.125 3.75 0.125 Z M 3.484375 -5.71875 C 2.960938 -5.71875 2.546875 -5.550781 2.234375 -5.21875 C 1.929688 -4.882812 1.753906 -4.421875 1.703125 -3.828125 L 5.0625 -3.828125 C 5.0625 -4.441406 4.925781 -4.910156 4.65625 -5.234375 C 4.382812 -5.554688 3.992188 -5.71875 3.484375 -5.71875 Z M 3.484375 -5.71875 "/></g></g></g><g fill="#f8f4eb" fill-opacity="1"><g transform="translate(205.637687, 281.469649)"><g><path d="M 3.109375 -0.6875 C 3.273438 -0.6875 3.4375 -0.695312 3.59375 -0.71875 C 3.757812 -0.75 3.890625 -0.773438 3.984375 -0.796875 L 3.984375 -0.0625 C 3.878906 -0.0078125 3.722656 0.03125 3.515625 0.0625 C 3.316406 0.101562 3.132812 0.125 2.96875 0.125 C 1.726562 0.125 1.109375 -0.53125 1.109375 -1.84375 L 1.109375 -5.671875 L 0.1875 -5.671875 L 0.1875 -6.140625 L 1.109375 -6.546875 L 1.515625 -7.90625 L 2.078125 -7.90625 L 2.078125 -6.421875 L 3.9375 -6.421875 L 3.9375 -5.671875 L 2.078125 -5.671875 L 2.078125 -1.890625 C 2.078125 -1.503906 2.164062 -1.207031 2.34375 -1 C 2.53125 -0.789062 2.785156 -0.6875 3.109375 -0.6875 Z M 3.109375 -0.6875 "/></g></g></g><g fill="#f8f4eb" fill-opacity="1"><g transform="translate(211.374015, 281.469649)"><g/></g></g><g fill="#f8f4eb" fill-opacity="1"><g transform="translate(215.991202, 281.469649)"><g><path d="M 5.171875 -1.75 C 5.171875 -1.15625 4.945312 -0.691406 4.5 -0.359375 C 4.0625 -0.0351562 3.4375 0.125 2.625 0.125 C 1.78125 0.125 1.117188 -0.0078125 0.640625 -0.28125 L 0.640625 -1.1875 C 0.953125 -1.03125 1.28125 -0.90625 1.625 -0.8125 C 1.976562 -0.726562 2.320312 -0.6875 2.65625 -0.6875 C 3.164062 -0.6875 3.554688 -0.765625 3.828125 -0.921875 C 4.097656 -1.085938 4.234375 -1.335938 4.234375 -1.671875 C 4.234375 -1.921875 4.125 -2.132812 3.90625 -2.3125 C 3.695312 -2.488281 3.273438 -2.695312 2.640625 -2.9375 C 2.046875 -3.164062 1.617188 -3.363281 1.359375 -3.53125 C 1.109375 -3.695312 0.921875 -3.882812 0.796875 -4.09375 C 0.679688 -4.300781 0.625 -4.550781 0.625 -4.84375 C 0.625 -5.363281 0.835938 -5.773438 1.265625 -6.078125 C 1.691406 -6.390625 2.273438 -6.546875 3.015625 -6.546875 C 3.703125 -6.546875 4.378906 -6.40625 5.046875 -6.125 L 4.6875 -5.328125 C 4.050781 -5.585938 3.46875 -5.71875 2.9375 -5.71875 C 2.476562 -5.71875 2.128906 -5.644531 1.890625 -5.5 C 1.660156 -5.363281 1.546875 -5.164062 1.546875 -4.90625 C 1.546875 -4.738281 1.585938 -4.59375 1.671875 -4.46875 C 1.765625 -4.351562 1.90625 -4.238281 2.09375 -4.125 C 2.289062 -4.019531 2.671875 -3.863281 3.234375 -3.65625 C 3.992188 -3.375 4.503906 -3.09375 4.765625 -2.8125 C 5.035156 -2.53125 5.171875 -2.175781 5.171875 -1.75 Z M 5.171875 -1.75 "/></g></g></g><g fill="#f8f4eb" fill-opacity="1"><g transform="translate(223.215811, 281.469649)"><g><path d="M 3.75 0.125 C 2.800781 0.125 2.050781 -0.164062 1.5 -0.75 C 0.945312 -1.332031 0.671875 -2.132812 0.671875 -3.15625 C 0.671875 -4.195312 0.925781 -5.019531 1.4375 -5.625 C 1.945312 -6.238281 2.632812 -6.546875 3.5 -6.546875 C 4.300781 -6.546875 4.9375 -6.28125 5.40625 -5.75 C 5.875 -5.21875 6.109375 -4.519531 6.109375 -3.65625 L 6.109375 -3.03125 L 1.6875 -3.03125 C 1.707031 -2.28125 1.894531 -1.707031 2.25 -1.3125 C 2.613281 -0.925781 3.125 -0.734375 3.78125 -0.734375 C 4.46875 -0.734375 5.148438 -0.878906 5.828125 -1.171875 L 5.828125 -0.296875 C 5.484375 -0.148438 5.15625 -0.046875 4.84375 0.015625 C 4.539062 0.0859375 4.175781 0.125 3.75 0.125 Z M 3.484375 -5.71875 C 2.960938 -5.71875 2.546875 -5.550781 2.234375 -5.21875 C 1.929688 -4.882812 1.753906 -4.421875 1.703125 -3.828125 L 5.0625 -3.828125 C 5.0625 -4.441406 4.925781 -4.910156 4.65625 -5.234375 C 4.382812 -5.554688 3.992188 -5.71875 3.484375 -5.71875 Z M 3.484375 -5.71875 "/></g></g></g><g fill="#f8f4eb" fill-opacity="1"><g transform="translate(231.448232, 281.469649)"><g><path d="M 3.96875 -6.546875 C 4.25 -6.546875 4.503906 -6.519531 4.734375 -6.46875 L 4.59375 -5.5625 C 4.332031 -5.625 4.097656 -5.65625 3.890625 -5.65625 C 3.367188 -5.65625 2.921875 -5.441406 2.546875 -5.015625 C 2.179688 -4.597656 2 -4.078125 2 -3.453125 L 2 0 L 1.03125 0 L 1.03125 -6.421875 L 1.828125 -6.421875 L 1.953125 -5.234375 L 2 -5.234375 C 2.226562 -5.648438 2.507812 -5.972656 2.84375 -6.203125 C 3.1875 -6.429688 3.5625 -6.546875 3.96875 -6.546875 Z M 3.96875 -6.546875 "/></g></g></g><g fill="#f8f4eb" fill-opacity="1"><g transform="translate(237.846669, 281.469649)"><g><path d="M 2.4375 0 L 0 -6.421875 L 1.046875 -6.421875 L 2.421875 -2.609375 C 2.734375 -1.722656 2.921875 -1.144531 2.984375 -0.875 L 3.03125 -0.875 C 3.070312 -1.082031 3.207031 -1.507812 3.4375 -2.15625 C 3.664062 -2.8125 4.175781 -4.234375 4.96875 -6.421875 L 6.015625 -6.421875 L 3.578125 0 Z M 2.4375 0 "/></g></g></g><g fill="#f8f4eb" fill-opacity="1"><g transform="translate(245.358388, 281.469649)"><g><path d="M 2 0 L 1.03125 0 L 1.03125 -6.421875 L 2 -6.421875 Z M 0.953125 -8.15625 C 0.953125 -8.382812 1.003906 -8.550781 1.109375 -8.65625 C 1.222656 -8.757812 1.363281 -8.8125 1.53125 -8.8125 C 1.6875 -8.8125 1.816406 -8.753906 1.921875 -8.640625 C 2.035156 -8.535156 2.09375 -8.375 2.09375 -8.15625 C 2.09375 -7.9375 2.035156 -7.773438 1.921875 -7.671875 C 1.816406 -7.566406 1.6875 -7.515625 1.53125 -7.515625 C 1.363281 -7.515625 1.222656 -7.566406 1.109375 -7.671875 C 1.003906 -7.773438 0.953125 -7.9375 0.953125 -8.15625 Z M 0.953125 -8.15625 "/></g></g></g><g fill="#f8f4eb" fill-opacity="1"><g transform="translate(249.893544, 281.469649)"><g><path d="M 3.59375 0.125 C 2.664062 0.125 1.945312 -0.160156 1.4375 -0.734375 C 0.925781 -1.304688 0.671875 -2.117188 0.671875 -3.171875 C 0.671875 -4.242188 0.929688 -5.070312 1.453125 -5.65625 C 1.972656 -6.25 2.707031 -6.546875 3.65625 -6.546875 C 3.96875 -6.546875 4.273438 -6.507812 4.578125 -6.4375 C 4.890625 -6.375 5.132812 -6.296875 5.3125 -6.203125 L 5.015625 -5.375 C 4.796875 -5.46875 4.5625 -5.539062 4.3125 -5.59375 C 4.0625 -5.644531 3.835938 -5.671875 3.640625 -5.671875 C 2.335938 -5.671875 1.6875 -4.84375 1.6875 -3.1875 C 1.6875 -2.394531 1.84375 -1.785156 2.15625 -1.359375 C 2.476562 -0.941406 2.953125 -0.734375 3.578125 -0.734375 C 4.109375 -0.734375 4.65625 -0.847656 5.21875 -1.078125 L 5.21875 -0.21875 C 4.789062 0.0078125 4.25 0.125 3.59375 0.125 Z M 3.59375 0.125 "/></g></g></g><g fill="#f8f4eb" fill-opacity="1"><g transform="translate(257.106434, 281.469649)"><g><path d="M 3.75 0.125 C 2.800781 0.125 2.050781 -0.164062 1.5 -0.75 C 0.945312 -1.332031 0.671875 -2.132812 0.671875 -3.15625 C 0.671875 -4.195312 0.925781 -5.019531 1.4375 -5.625 C 1.945312 -6.238281 2.632812 -6.546875 3.5 -6.546875 C 4.300781 -6.546875 4.9375 -6.28125 5.40625 -5.75 C 5.875 -5.21875 6.109375 -4.519531 6.109375 -3.65625 L 6.109375 -3.03125 L 1.6875 -3.03125 C 1.707031 -2.28125 1.894531 -1.707031 2.25 -1.3125 C 2.613281 -0.925781 3.125 -0.734375 3.78125 -0.734375 C 4.46875 -0.734375 5.148438 -0.878906 5.828125 -1.171875 L 5.828125 -0.296875 C 5.484375 -0.148438 5.15625 -0.046875 4.84375 0.015625 C 4.539062 0.0859375 4.175781 0.125 3.75 0.125 Z M 3.484375 -5.71875 C 2.960938 -5.71875 2.546875 -5.550781 2.234375 -5.21875 C 1.929688 -4.882812 1.753906 -4.421875 1.703125 -3.828125 L 5.0625 -3.828125 C 5.0625 -4.441406 4.925781 -4.910156 4.65625 -5.234375 C 4.382812 -5.554688 3.992188 -5.71875 3.484375 -5.71875 Z M 3.484375 -5.71875 "/></g></g></g><g fill="#f8f4eb" fill-opacity="1"><g transform="translate(265.338855, 281.469649)"><g><path d="M 5.171875 -1.75 C 5.171875 -1.15625 4.945312 -0.691406 4.5 -0.359375 C 4.0625 -0.0351562 3.4375 0.125 2.625 0.125 C 1.78125 0.125 1.117188 -0.0078125 0.640625 -0.28125 L 0.640625 -1.1875 C 0.953125 -1.03125 1.28125 -0.90625 1.625 -0.8125 C 1.976562 -0.726562 2.320312 -0.6875 2.65625 -0.6875 C 3.164062 -0.6875 3.554688 -0.765625 3.828125 -0.921875 C 4.097656 -1.085938 4.234375 -1.335938 4.234375 -1.671875 C 4.234375 -1.921875 4.125 -2.132812 3.90625 -2.3125 C 3.695312 -2.488281 3.273438 -2.695312 2.640625 -2.9375 C 2.046875 -3.164062 1.617188 -3.363281 1.359375 -3.53125 C 1.109375 -3.695312 0.921875 -3.882812 0.796875 -4.09375 C 0.679688 -4.300781 0.625 -4.550781 0.625 -4.84375 C 0.625 -5.363281 0.835938 -5.773438 1.265625 -6.078125 C 1.691406 -6.390625 2.273438 -6.546875 3.015625 -6.546875 C 3.703125 -6.546875 4.378906 -6.40625 5.046875 -6.125 L 4.6875 -5.328125 C 4.050781 -5.585938 3.46875 -5.71875 2.9375 -5.71875 C 2.476562 -5.71875 2.128906 -5.644531 1.890625 -5.5 C 1.660156 -5.363281 1.546875 -5.164062 1.546875 -4.90625 C 1.546875 -4.738281 1.585938 -4.59375 1.671875 -4.46875 C 1.765625 -4.351562 1.90625 -4.238281 2.09375 -4.125 C 2.289062 -4.019531 2.671875 -3.863281 3.234375 -3.65625 C 3.992188 -3.375 4.503906 -3.09375 4.765625 -2.8125 C 5.035156 -2.53125 5.171875 -2.175781 5.171875 -1.75 Z M 5.171875 -1.75 "/></g></g></g></svg>